<svg xmlns="http://www.w3.org/2000/svg" xmlns:xlink="http://www.w3.org/1999/xlink" xmlns:lucid="lucid" width="1301" height="721"><g transform="translate(100.5 -239.5)" lucid:page-tab-id="0_0"><path d="M-500 0h2000v1000H-500z" fill="#fff"/><path d="M-80 266a6 6 0 0 1 6-6h388a6 6 0 0 1 6 6v286a6 6 0 0 1-6 6H-74a6 6 0 0 1-6-6z" stroke="#3a414a" fill="#fff"/><path d="M-80 301.87h400M-80 454h400" stroke="#3a414a" fill="none"/><use xlink:href="#a" transform="matrix(1,0,0,1,-72,268) translate(166.67447916666666 20.69314236111111)"/><use xlink:href="#b" transform="matrix(1,0,0,1,-68,309.86805555555554) translate(0 38.27777777777778)"/><use xlink:href="#c" transform="matrix(1,0,0,1,-68,309.86805555555554) translate(22.22222222222222 38.27777777777778)"/><use xlink:href="#d" transform="matrix(1,0,0,1,-68,309.86805555555554) translate(66.66666666666666 38.27777777777778)"/><use xlink:href="#b" transform="matrix(1,0,0,1,-68,309.86805555555554) translate(0 62.5)"/><use xlink:href="#e" transform="matrix(1,0,0,1,-68,309.86805555555554) translate(22.22222222222222 62.5)"/><use xlink:href="#f" transform="matrix(1,0,0,1,-68,309.86805555555554) translate(100 62.5)"/><use xlink:href="#b" transform="matrix(1,0,0,1,-68,309.86805555555554) translate(0 86.72222222222223)"/><use xlink:href="#g" transform="matrix(1,0,0,1,-68,309.86805555555554) translate(22.22222222222222 86.72222222222223)"/><use xlink:href="#f" transform="matrix(1,0,0,1,-68,309.86805555555554) translate(133.33333333333334 86.72222222222223)"/><use xlink:href="#b" transform="matrix(1,0,0,1,-68,309.86805555555554) translate(0 110.94444444444443)"/><use xlink:href="#h" transform="matrix(1,0,0,1,-68,309.86805555555554) translate(22.22222222222222 110.94444444444443)"/><use xlink:href="#i" transform="matrix(1,0,0,1,-68,309.86805555555554) translate(200.00000000000003 110.94444444444443)"/><use xlink:href="#j" transform="matrix(1,0,0,1,-68,462.00694444444446) translate(0 38)"/><use xlink:href="#k" transform="matrix(1,0,0,1,-68,462.00694444444446) translate(22.22222222222222 38)"/><use xlink:href="#l" transform="matrix(1,0,0,1,-68,462.00694444444446) translate(244.44444444444449 38)"/><use xlink:href="#j" transform="matrix(1,0,0,1,-68,462.00694444444446) translate(0 62.22222222222222)"/><use xlink:href="#m" transform="matrix(1,0,0,1,-68,462.00694444444446) translate(22.22222222222222 62.22222222222222)"/><use xlink:href="#n" transform="matrix(1,0,0,1,-68,462.00694444444446) translate(277.7777777777778 62.22222222222222)"/><path d="M-80 646a6 6 0 0 1 6-6h388a6 6 0 0 1 6 6v286a6 6 0 0 1-6 6H-74a6 6 0 0 1-6-6z" stroke="#3a414a" fill="#fff"/><path d="M-80 681.87h400m-400 152.4h400" stroke="#3a414a" fill="none"/><g><use xlink:href="#o" transform="matrix(1,0,0,1,-72,648) translate(177.54144965277777 20.69314236111111)"/></g><g><use xlink:href="#p" transform="matrix(1,0,0,1,-68,689.8680555555555) translate(0 38.27777777777778)"/><use xlink:href="#q" transform="matrix(1,0,0,1,-68,689.8680555555555) translate(22.22222222222222 38.27777777777778)"/><use xlink:href="#r" transform="matrix(1,0,0,1,-68,689.8680555555555) translate(66.66666666666666 38.27777777777778)"/><use xlink:href="#b" transform="matrix(1,0,0,1,-68,689.8680555555555) translate(0 62.5)"/><use xlink:href="#s" transform="matrix(1,0,0,1,-68,689.8680555555555) translate(22.22222222222222 62.5)"/><use xlink:href="#f" transform="matrix(1,0,0,1,-68,689.8680555555555) translate(100 62.5)"/><use xlink:href="#b" transform="matrix(1,0,0,1,-68,689.8680555555555) translate(0 86.72222222222223)"/><use xlink:href="#t" transform="matrix(1,0,0,1,-68,689.8680555555555) translate(22.22222222222222 86.72222222222223)"/><use xlink:href="#f" transform="matrix(1,0,0,1,-68,689.8680555555555) translate(166.66666666666669 86.72222222222223)"/><use xlink:href="#b" transform="matrix(1,0,0,1,-68,689.8680555555555) translate(0 110.94444444444443)"/><use xlink:href="#u" transform="matrix(1,0,0,1,-68,689.8680555555555) translate(22.22222222222222 110.94444444444443)"/><use xlink:href="#v" transform="matrix(1,0,0,1,-68,689.8680555555555) translate(88.88888888888889 110.94444444444443)"/></g><g><use xlink:href="#w" transform="matrix(1,0,0,1,-68,842.2569444444445) translate(0 38)"/><use xlink:href="#x" transform="matrix(1,0,0,1,-68,842.2569444444445) translate(22.22222222222222 38)"/><use xlink:href="#y" transform="matrix(1,0,0,1,-68,842.2569444444445) translate(133.33333333333334 38)"/><use xlink:href="#w" transform="matrix(1,0,0,1,-68,842.2569444444445) translate(0 62.22222222222222)"/><use xlink:href="#z" transform="matrix(1,0,0,1,-68,842.2569444444445) translate(22.22222222222222 62.22222222222222)"/><use xlink:href="#A" transform="matrix(1,0,0,1,-68,842.2569444444445) translate(155.55555555555557 62.22222222222222)"/></g><path d="M400 646a6 6 0 0 1 6-6h768a6 6 0 0 1 6 6v288a6 6 0 0 1-6 6H406a6 6 0 0 1-6-6z" stroke="#3a414a" fill="#fff"/><path d="M400 681.87h780M400 762.6h780" stroke="#3a414a" fill="none"/><g><use xlink:href="#B" transform="matrix(1,0,0,1,408,648) translate(312.8865017361111 20.69314236111111)"/></g><g><use xlink:href="#b" transform="matrix(1,0,0,1,412,689.8680555555555) translate(0 38.611111111111114)"/><use xlink:href="#C" transform="matrix(1,0,0,1,412,689.8680555555555) translate(22.22222222222222 38.611111111111114)"/><use xlink:href="#D" transform="matrix(1,0,0,1,412,689.8680555555555) translate(144.44444444444446 38.611111111111114)"/></g><g><use xlink:href="#j" transform="matrix(1,0,0,1,412,770.5902777777778) translate(0 38.666666666666664)"/><use xlink:href="#E" transform="matrix(1,0,0,1,412,770.5902777777778) translate(22.22222222222222 38.666666666666664)"/><use xlink:href="#F" transform="matrix(1,0,0,1,412,770.5902777777778) translate(166.66666666666669 38.666666666666664)"/><use xlink:href="#G" transform="matrix(1,0,0,1,412,770.5902777777778) translate(255.5555555555556 38.666666666666664)"/><use xlink:href="#j" transform="matrix(1,0,0,1,412,770.5902777777778) translate(0 62.888888888888886)"/><use xlink:href="#H" transform="matrix(1,0,0,1,412,770.5902777777778) translate(22.22222222222222 62.888888888888886)"/><use xlink:href="#I" transform="matrix(1,0,0,1,412,770.5902777777778) translate(177.7777777777778 62.888888888888886)"/><use xlink:href="#G" transform="matrix(1,0,0,1,412,770.5902777777778) translate(233.33333333333337 62.888888888888886)"/><use xlink:href="#j" transform="matrix(1,0,0,1,412,770.5902777777778) translate(0 87.11111111111111)"/><use xlink:href="#J" transform="matrix(1,0,0,1,412,770.5902777777778) translate(22.22222222222222 87.11111111111111)"/><use xlink:href="#K" transform="matrix(1,0,0,1,412,770.5902777777778) translate(133.33333333333334 87.11111111111111)"/><use xlink:href="#j" transform="matrix(1,0,0,1,412,770.5902777777778) translate(0 111.33333333333331)"/><use xlink:href="#L" transform="matrix(1,0,0,1,412,770.5902777777778) translate(22.22222222222222 111.33333333333331)"/><use xlink:href="#I" transform="matrix(1,0,0,1,412,770.5902777777778) translate(233.33333333333337 111.33333333333331)"/><use xlink:href="#G" transform="matrix(1,0,0,1,412,770.5902777777778) translate(288.8888888888889 111.33333333333331)"/><use xlink:href="#j" transform="matrix(1,0,0,1,412,770.5902777777778) translate(0 135.55555555555554)"/><use xlink:href="#M" transform="matrix(1,0,0,1,412,770.5902777777778) translate(22.22222222222222 135.55555555555554)"/><use xlink:href="#N" transform="matrix(1,0,0,1,412,770.5902777777778) translate(155.55555555555557 135.55555555555554)"/></g><path d="M400 266a6 6 0 0 1 6-6h768a6 6 0 0 1 6 6v288a6 6 0 0 1-6 6H406a6 6 0 0 1-6-6z" stroke="#3a414a" fill="#fff"/><path d="M400 301.87h780M400 358.1h780" stroke="#3a414a" fill="none"/><g><use xlink:href="#O" transform="matrix(1,0,0,1,408,268) translate(302.01953125 20.69314236111111)"/></g><g><use xlink:href="#b" transform="matrix(1,0,0,1,412,309.86805555555554) translate(0 26.61111111111111)"/><use xlink:href="#P" transform="matrix(1,0,0,1,412,309.86805555555554) translate(22.22222222222222 26.61111111111111)"/><use xlink:href="#Q" transform="matrix(1,0,0,1,412,309.86805555555554) translate(166.66666666666669 26.61111111111111)"/></g><g><use xlink:href="#j" transform="matrix(1,0,0,1,412,366.09027777777777) translate(0 26.444444444444436)"/><use xlink:href="#R" transform="matrix(1,0,0,1,412,366.09027777777777) translate(22.22222222222222 26.444444444444436)"/><use xlink:href="#S" transform="matrix(1,0,0,1,412,366.09027777777777) translate(200.00000000000003 26.444444444444436)"/><use xlink:href="#T" transform="matrix(1,0,0,1,412,366.09027777777777) translate(311.11111111111114 26.444444444444436)"/><use xlink:href="#j" transform="matrix(1,0,0,1,412,366.09027777777777) translate(0 50.66666666666666)"/><use xlink:href="#U" transform="matrix(1,0,0,1,412,366.09027777777777) translate(22.22222222222222 50.66666666666666)"/><use xlink:href="#I" transform="matrix(1,0,0,1,412,366.09027777777777) translate(200.00000000000003 50.66666666666666)"/><use xlink:href="#T" transform="matrix(1,0,0,1,412,366.09027777777777) translate(255.5555555555556 50.66666666666666)"/><use xlink:href="#j" transform="matrix(1,0,0,1,412,366.09027777777777) translate(0 74.88888888888889)"/><use xlink:href="#V" transform="matrix(1,0,0,1,412,366.09027777777777) translate(22.22222222222222 74.88888888888889)"/><use xlink:href="#W" transform="matrix(1,0,0,1,412,366.09027777777777) translate(155.55555555555557 74.88888888888889)"/><use xlink:href="#j" transform="matrix(1,0,0,1,412,366.09027777777777) translate(0 99.11111111111109)"/><use xlink:href="#X" transform="matrix(1,0,0,1,412,366.09027777777777) translate(22.22222222222222 99.11111111111109)"/><use xlink:href="#I" transform="matrix(1,0,0,1,412,366.09027777777777) translate(166.66666666666669 99.11111111111109)"/><use xlink:href="#G" transform="matrix(1,0,0,1,412,366.09027777777777) translate(222.22222222222223 99.11111111111109)"/><use xlink:href="#j" transform="matrix(1,0,0,1,412,366.09027777777777) translate(0 123.33333333333331)"/><use xlink:href="#Y" transform="matrix(1,0,0,1,412,366.09027777777777) translate(22.22222222222222 123.33333333333331)"/><use xlink:href="#Z" transform="matrix(1,0,0,1,412,366.09027777777777) translate(288.8888888888889 123.33333333333331)"/><use xlink:href="#aa" transform="matrix(1,0,0,1,412,366.09027777777777) translate(333.33333333333337 123.33333333333331)"/><use xlink:href="#ab" transform="matrix(1,0,0,1,412,366.09027777777777) translate(422.2222222222223 123.33333333333331)"/><use xlink:href="#j" transform="matrix(1,0,0,1,412,366.09027777777777) translate(0 147.55555555555554)"/><use xlink:href="#ac" transform="matrix(1,0,0,1,412,366.09027777777777) translate(22.22222222222222 147.55555555555554)"/><use xlink:href="#ad" transform="matrix(1,0,0,1,412,366.09027777777777) translate(188.8888888888889 147.55555555555554)"/><use xlink:href="#ae" transform="matrix(1,0,0,1,412,366.09027777777777) translate(277.7777777777778 147.55555555555554)"/><use xlink:href="#af" transform="matrix(1,0,0,1,412,366.09027777777777) translate(333.33333333333337 147.55555555555554)"/><use xlink:href="#T" transform="matrix(1,0,0,1,412,366.09027777777777) translate(411.11111111111114 147.55555555555554)"/><use xlink:href="#j" transform="matrix(1,0,0,1,412,366.09027777777777) translate(0 171.77777777777777)"/><use xlink:href="#ag" transform="matrix(1,0,0,1,412,366.09027777777777) translate(22.22222222222222 171.77777777777777)"/><use xlink:href="#ad" transform="matrix(1,0,0,1,412,366.09027777777777) translate(211.11111111111114 171.77777777777777)"/><use xlink:href="#ae" transform="matrix(1,0,0,1,412,366.09027777777777) translate(300.00000000000006 171.77777777777777)"/><use xlink:href="#af" transform="matrix(1,0,0,1,412,366.09027777777777) translate(355.5555555555556 171.77777777777777)"/><use xlink:href="#ah" transform="matrix(1,0,0,1,412,366.09027777777777) translate(433.33333333333337 171.77777777777777)"/></g><defs><path fill="#3a414a" d="M750 29c-381 0-572-206-572-590v-932h203v907c3 300 86 451 369 451 282 0 368-151 368-451v-907h203v932c1 384-191 590-571 590" id="ai"/><path fill="#3a414a" d="M549-1147c138 1 258 21 358 60v174c-95-49-202-80-336-80-155 0-274 34-274 168 0 43 18 75 49 101 32 28 167 64 260 83 131 27 223 68 278 119s83 122 83 213C967-78 759 33 504 29 357 27 235-1 111-41v-190c117 60 239 104 397 106 147 2 270-43 270-170 0-50-19-86-50-115s-183-69-286-92c-197-44-323-106-323-315 0-230 181-332 430-330" id="aj"/><path fill="#3a414a" d="M662-1147c308 0 494 224 489 541v90H305c14 244 148 389 400 389 164 0 286-43 403-104v174C988-6 854 27 694 29c-352 4-581-227-581-578s207-598 549-598zm305 487c1-190-117-331-303-331-212 0-338 131-353 332" id="ak"/><path fill="#3a414a" d="M371-946c77-148 245-227 470-191l1 189c-40-23-87-35-148-35-222 1-323 158-323 393V0H186v-1120h185v174" id="al"/><g id="a"><use transform="matrix(0.010850694444444444,0,0,0.010850694444444444,0,0)" xlink:href="#ai"/><use transform="matrix(0.010850694444444444,0,0,0.010850694444444444,16.26519097222222,0)" xlink:href="#aj"/><use transform="matrix(0.010850694444444444,0,0,0.010850694444444444,27.842881944444443,0)" xlink:href="#ak"/><use transform="matrix(0.010850694444444444,0,0,0.010850694444444444,41.51475694444444,0)" xlink:href="#al"/></g><path fill="#3a414a" d="M71-348h360v67H71v-67" id="am"/><use transform="matrix(0.022222222222222223,0,0,0.022222222222222223,0,0)" xlink:href="#am" id="b"/><path fill="#3a414a" d="M106-457h183v399h107V0H100v-58h117v-341H106v-58zm149-199c29 0 51 23 51 51s-22 52-51 52-52-24-52-52 23-51 52-51" id="an"/><path fill="#3a414a" d="M371-390v-275h77c0 12-10 17-10 28l1 595c0 14 1 28 5 42h-72c-7-22-3-46-4-73-29 51-83 83-141 83-88 0-182-73-182-242 0-175 105-237 192-237 63 0 112 32 134 79zM243-53c73 0 122-71 122-170 0-51-1-77-7-98-18-68-78-89-118-89-53 0-125 36-125 166 0 150 76 191 128 191" id="ao"/><path fill="#3a414a" d="M298-365c0 31-26 57-59 57s-60-25-60-57c0-31 27-58 60-58s59 27 59 58zm0 319c0 31-26 57-59 57s-60-25-60-57c0-31 27-58 60-58s59 27 59 58" id="ap"/><g id="c"><use transform="matrix(0.022222222222222223,0,0,0.022222222222222223,0,0)" xlink:href="#an"/><use transform="matrix(0.022222222222222223,0,0,0.022222222222222223,11.11111111111111,0)" xlink:href="#ao"/><use transform="matrix(0.022222222222222223,0,0,0.022222222222222223,22.22222222222222,0)" xlink:href="#ap"/></g><path fill="#3a414a" d="M148-623c1 16-10 18-9 34v529h300V1H66v-624h82" id="aq"/><path fill="#3a414a" d="M460-226c0 151-97 238-205 238C140 12 40-86 40-225c0-141 101-242 217-242 104 0 203 83 203 241zm-72 3c1-245-271-238-272-8-5 228 272 366 272 8" id="ar"/><path fill="#3a414a" d="M274-405c-78 10-132 62-132 142V0H68v-457h74v81c34-51 89-92 151-92 88 0 139 91 139 191V0h-71v-275c9-55-27-138-87-130" id="as"/><path fill="#3a414a" d="M126-314c0 55 45 100 101 100s100-45 100-100-44-101-100-101-101 46-101 101zm11 199c9 36 35 35 92 35 52 0 107-6 155 13 49 20 71 59 71 99 0 61-55 140-210 140C85 172 38 114 38 64c0-36 26-70 75-101-29-15-37-42-37-61 0-29 19-60 52-88-42-27-68-74-68-124 0-133 184-217 279-118 35-30 81-45 127-41l9 59c-41-6-74 2-106 20 77 121-53 276-200 223-4 4-32 28-32 52zm107 233c53 0 145-29 145-81 0-20-11-48-54-53s-135-1-174-8c-52 25-92 93-12 127 35 14 74 15 95 15" id="at"/><g id="d"><use transform="matrix(0.022222222222222223,0,0,0.022222222222222223,0,0)" xlink:href="#aq"/><use transform="matrix(0.022222222222222223,0,0,0.022222222222222223,11.11111111111111,0)" xlink:href="#ar"/><use transform="matrix(0.022222222222222223,0,0,0.022222222222222223,22.22222222222222,0)" xlink:href="#as"/><use transform="matrix(0.022222222222222223,0,0,0.022222222222222223,33.33333333333333,0)" xlink:href="#at"/></g><path fill="#3a414a" d="M259-468c75 0 160 39 181 162 4 27 6 57 3 88H118c5 137 95 170 156 170 45 0 88-18 118-51l40 39c-39 47-99 70-164 70C144 10 49-71 49-223c0-167 101-245 210-245zM121-274h251c9-74-44-139-118-139-49 0-119 31-133 139" id="au"/><path fill="#3a414a" d="M173-413c-33-7-69 65-69 108V0H38v-457h66v45c21-32 56-56 93-56 41 0 74 29 81 67 27-65 127-96 174-30 21 30 18 69 18 107V1h-68v-325c5-38-4-96-42-91-51 6-72 68-73 113V0h-67v-318c7-41-11-101-47-95" id="av"/><path fill="#3a414a" d="M366-269c2-83-14-137-109-139-42 0-94 12-131 51l-35-46c43-44 101-64 163-64 110 0 181 69 181 184V0h-68v-50C317-9 259 11 203 11 23 8-5-195 154-249c63-21 138-20 212-20zm3 55c-54 1-120-4-167 7-57 14-81 51-81 84 0 41 35 79 96 79 60 0 104-36 120-54 39-46 31-65 32-116" id="aw"/><path fill="#3a414a" d="M85-665h202v607h134V0H79v-58h135v-549H85v-58" id="ax"/><g id="e"><use transform="matrix(0.022222222222222223,0,0,0.022222222222222223,0,0)" xlink:href="#au"/><use transform="matrix(0.022222222222222223,0,0,0.022222222222222223,11.11111111111111,0)" xlink:href="#av"/><use transform="matrix(0.022222222222222223,0,0,0.022222222222222223,22.22222222222222,0)" xlink:href="#aw"/><use transform="matrix(0.022222222222222223,0,0,0.022222222222222223,33.33333333333333,0)" xlink:href="#an"/><use transform="matrix(0.022222222222222223,0,0,0.022222222222222223,44.44444444444444,0)" xlink:href="#ax"/><use transform="matrix(0.022222222222222223,0,0,0.022222222222222223,55.55555555555556,0)" xlink:href="#ap"/></g><path fill="#3a414a" d="M435-549l-44 60c-7-1-4-13-8-18-24-35-68-62-126-62-71 0-113 43-113 91 0 25 12 63 64 93 57 33 145 52 199 103 39 37 48 79 48 112 0 78-56 180-208 180-77 0-146-27-195-80l41-72c9 7 1 13 8 21 28 35 80 68 148 68 136 0 185-132 84-199-46-31-136-50-194-93C2-448 89-626 262-627c68 0 131 28 173 78" id="ay"/><path fill="#3a414a" d="M298 9c-94 0-131-85-131-173 0-78 4-156 10-234H70l1-59h109l8-122 79-13c4 10-4 16-6 27-5 25-12 108-12 108h150v59H249c-9 66-12 213-6 267 6 55 43 73 77 73 28 0 63-12 102-41l22 57C405-14 352 9 298 9" id="az"/><path fill="#3a414a" d="M425-349c-21-29-38-57-93-57-32 0-86 11-128 77-31 49-32 79-32 107V1H99v-458h75l-2 88c45-108 209-131 286-49" id="aA"/><g id="f"><use transform="matrix(0.022222222222222223,0,0,0.022222222222222223,0,0)" xlink:href="#ay"/><use transform="matrix(0.022222222222222223,0,0,0.022222222222222223,11.11111111111111,0)" xlink:href="#az"/><use transform="matrix(0.022222222222222223,0,0,0.022222222222222223,22.22222222222222,0)" xlink:href="#aA"/><use transform="matrix(0.022222222222222223,0,0,0.022222222222222223,33.33333333333333,0)" xlink:href="#an"/><use transform="matrix(0.022222222222222223,0,0,0.022222222222222223,44.44444444444444,0)" xlink:href="#as"/><use transform="matrix(0.022222222222222223,0,0,0.022222222222222223,55.55555555555556,0)" xlink:href="#at"/></g><path fill="#3a414a" d="M60-457h73v70c31-50 85-80 144-80 90 0 186 72 186 233 0 168-99 246-192 246-55 0-107-27-137-72v227H60v-624zm191 51c-78 0-118 60-118 157 0 66 0 103 13 134 18 42 61 63 104 63s138-23 138-167c0-166-97-187-137-187" id="aB"/><path fill="#3a414a" d="M432-396l-42 63c-7 0-3-13-7-18-17-22-62-62-127-62-88-1-140 75-51 117 43 21 116 31 168 60 54 30 67 72 67 104 0 69-65 142-190 142-69 0-139-22-193-72l41-72c9 7 1 12 8 20 14 16 65 64 143 64 102 0 167-82 71-131-33-17-83-27-122-41-25-9-112-38-112-118 0-68 70-128 176-128 68 0 128 25 170 72" id="aC"/><path fill="#3a414a" d="M16-457h73c5 14-6 24-3 38l67 329 78-324h44l97 323c39-260 44-311 42-366h67c-20 153-45 307-76 458h-68l-84-296L173 1h-65" id="aD"/><g id="g"><use transform="matrix(0.022222222222222223,0,0,0.022222222222222223,0,0)" xlink:href="#aB"/><use transform="matrix(0.022222222222222223,0,0,0.022222222222222223,11.11111111111111,0)" xlink:href="#aw"/><use transform="matrix(0.022222222222222223,0,0,0.022222222222222223,22.22222222222222,0)" xlink:href="#aC"/><use transform="matrix(0.022222222222222223,0,0,0.022222222222222223,33.33333333333333,0)" xlink:href="#aC"/><use transform="matrix(0.022222222222222223,0,0,0.022222222222222223,44.44444444444444,0)" xlink:href="#aD"/><use transform="matrix(0.022222222222222223,0,0,0.022222222222222223,55.55555555555556,0)" xlink:href="#ar"/><use transform="matrix(0.022222222222222223,0,0,0.022222222222222223,66.66666666666667,0)" xlink:href="#aA"/><use transform="matrix(0.022222222222222223,0,0,0.022222222222222223,77.77777777777779,0)" xlink:href="#ao"/><use transform="matrix(0.022222222222222223,0,0,0.022222222222222223,88.8888888888889,0)" xlink:href="#ap"/></g><path fill="#3a414a" d="M40-457h86c2 11-6 15-2 25L256-98c46-116 110-226 136-359h65C416-289 337-148 277 3h-56" id="aE"/><g id="h"><use transform="matrix(0.022222222222222223,0,0,0.022222222222222223,0,0)" xlink:href="#aw"/><use transform="matrix(0.022222222222222223,0,0,0.022222222222222223,11.11111111111111,0)" xlink:href="#ao"/><use transform="matrix(0.022222222222222223,0,0,0.022222222222222223,22.22222222222222,0)" xlink:href="#aE"/><use transform="matrix(0.022222222222222223,0,0,0.022222222222222223,33.33333333333333,0)" xlink:href="#au"/><use transform="matrix(0.022222222222222223,0,0,0.022222222222222223,44.44444444444444,0)" xlink:href="#aA"/><use transform="matrix(0.022222222222222223,0,0,0.022222222222222223,55.55555555555556,0)" xlink:href="#az"/><use transform="matrix(0.022222222222222223,0,0,0.022222222222222223,66.66666666666667,0)" xlink:href="#an"/><use transform="matrix(0.022222222222222223,0,0,0.022222222222222223,77.77777777777779,0)" xlink:href="#aC"/><use transform="matrix(0.022222222222222223,0,0,0.022222222222222223,88.8888888888889,0)" xlink:href="#au"/><use transform="matrix(0.022222222222222223,0,0,0.022222222222222223,100.00000000000003,0)" xlink:href="#av"/><use transform="matrix(0.022222222222222223,0,0,0.022222222222222223,111.11111111111113,0)" xlink:href="#au"/><use transform="matrix(0.022222222222222223,0,0,0.022222222222222223,122.22222222222224,0)" xlink:href="#as"/><use transform="matrix(0.022222222222222223,0,0,0.022222222222222223,133.33333333333334,0)" xlink:href="#az"/><use transform="matrix(0.022222222222222223,0,0,0.022222222222222223,144.44444444444446,0)" xlink:href="#aC"/><use transform="matrix(0.022222222222222223,0,0,0.022222222222222223,155.55555555555557,0)" xlink:href="#ap"/></g><path fill="#3a414a" d="M458-496v-71L35-344v48L461-47v-76L111-319" id="aF"/><path fill="#3a414a" d="M15 1l220-635h8L483 0h-72l-69-182H144L84 1H15zm311-237l-88-238-80 238h168" id="aG"/><path fill="#3a414a" d="M42-496v-71l424 223v48L40-47v-76l349-196" id="aH"/><g id="i"><use transform="matrix(0.022222222222222223,0,0,0.022222222222222223,0,0)" xlink:href="#ay"/><use transform="matrix(0.022222222222222223,0,0,0.022222222222222223,11.11111111111111,0)" xlink:href="#au"/><use transform="matrix(0.022222222222222223,0,0,0.022222222222222223,22.22222222222222,0)" xlink:href="#az"/><use transform="matrix(0.022222222222222223,0,0,0.022222222222222223,33.33333333333333,0)" xlink:href="#aF"/><use transform="matrix(0.022222222222222223,0,0,0.022222222222222223,44.44444444444444,0)" xlink:href="#aG"/><use transform="matrix(0.022222222222222223,0,0,0.022222222222222223,55.55555555555556,0)" xlink:href="#ao"/><use transform="matrix(0.022222222222222223,0,0,0.022222222222222223,66.66666666666667,0)" xlink:href="#aH"/></g><path fill="#3a414a" d="M222-523h63v171h171v61H285v187h-63v-187H45v-61h177v-171" id="aI"/><use transform="matrix(0.022222222222222223,0,0,0.022222222222222223,0,0)" xlink:href="#aI" id="j"/><path fill="#3a414a" d="M403-604c-124 64-194 197-195 342 0 155 80 303 217 382l-32 53C235 90 139-76 139-258c0-183 98-340 253-408l30 61c-7 4-12 1-19 1" id="aJ"/><path fill="#3a414a" d="M78-603l19-62c162 75 267 236 267 414C364-71 257 95 91 174l-19-60C207 42 293-98 293-248c0-148-83-285-215-355" id="aK"/><g id="k"><use transform="matrix(0.022222222222222223,0,0,0.022222222222222223,0,0)" xlink:href="#aw"/><use transform="matrix(0.022222222222222223,0,0,0.022222222222222223,11.11111111111111,0)" xlink:href="#ao"/><use transform="matrix(0.022222222222222223,0,0,0.022222222222222223,22.22222222222222,0)" xlink:href="#ao"/><use transform="matrix(0.022222222222222223,0,0,0.022222222222222223,33.33333333333333,0)" xlink:href="#aG"/><use transform="matrix(0.022222222222222223,0,0,0.022222222222222223,44.44444444444444,0)" xlink:href="#ao"/><use transform="matrix(0.022222222222222223,0,0,0.022222222222222223,55.55555555555556,0)" xlink:href="#aE"/><use transform="matrix(0.022222222222222223,0,0,0.022222222222222223,66.66666666666667,0)" xlink:href="#au"/><use transform="matrix(0.022222222222222223,0,0,0.022222222222222223,77.77777777777779,0)" xlink:href="#aA"/><use transform="matrix(0.022222222222222223,0,0,0.022222222222222223,88.8888888888889,0)" xlink:href="#az"/><use transform="matrix(0.022222222222222223,0,0,0.022222222222222223,100.00000000000003,0)" xlink:href="#an"/><use transform="matrix(0.022222222222222223,0,0,0.022222222222222223,111.11111111111113,0)" xlink:href="#aC"/><use transform="matrix(0.022222222222222223,0,0,0.022222222222222223,122.22222222222224,0)" xlink:href="#au"/><use transform="matrix(0.022222222222222223,0,0,0.022222222222222223,133.33333333333334,0)" xlink:href="#av"/><use transform="matrix(0.022222222222222223,0,0,0.022222222222222223,144.44444444444446,0)" xlink:href="#au"/><use transform="matrix(0.022222222222222223,0,0,0.022222222222222223,155.55555555555557,0)" xlink:href="#as"/><use transform="matrix(0.022222222222222223,0,0,0.022222222222222223,166.66666666666669,0)" xlink:href="#az"/><use transform="matrix(0.022222222222222223,0,0,0.022222222222222223,177.7777777777778,0)" xlink:href="#aJ"/><use transform="matrix(0.022222222222222223,0,0,0.022222222222222223,188.88888888888889,0)" xlink:href="#aK"/><use transform="matrix(0.022222222222222223,0,0,0.022222222222222223,200.00000000000006,0)" xlink:href="#ap"/></g><g id="l"><use transform="matrix(0.022222222222222223,0,0,0.022222222222222223,0,0)" xlink:href="#aE"/><use transform="matrix(0.022222222222222223,0,0,0.022222222222222223,11.11111111111111,0)" xlink:href="#ar"/><use transform="matrix(0.022222222222222223,0,0,0.022222222222222223,22.22222222222222,0)" xlink:href="#an"/><use transform="matrix(0.022222222222222223,0,0,0.022222222222222223,33.33333333333333,0)" xlink:href="#ao"/></g><g id="m"><use transform="matrix(0.022222222222222223,0,0,0.022222222222222223,0,0)" xlink:href="#aA"/><use transform="matrix(0.022222222222222223,0,0,0.022222222222222223,11.11111111111111,0)" xlink:href="#au"/><use transform="matrix(0.022222222222222223,0,0,0.022222222222222223,22.22222222222222,0)" xlink:href="#av"/><use transform="matrix(0.022222222222222223,0,0,0.022222222222222223,33.33333333333333,0)" xlink:href="#ar"/><use transform="matrix(0.022222222222222223,0,0,0.022222222222222223,44.44444444444444,0)" xlink:href="#aE"/><use transform="matrix(0.022222222222222223,0,0,0.022222222222222223,55.55555555555556,0)" xlink:href="#au"/><use transform="matrix(0.022222222222222223,0,0,0.022222222222222223,66.66666666666667,0)" xlink:href="#aG"/><use transform="matrix(0.022222222222222223,0,0,0.022222222222222223,77.77777777777779,0)" xlink:href="#ao"/><use transform="matrix(0.022222222222222223,0,0,0.022222222222222223,88.8888888888889,0)" xlink:href="#aE"/><use transform="matrix(0.022222222222222223,0,0,0.022222222222222223,100.00000000000003,0)" xlink:href="#au"/><use transform="matrix(0.022222222222222223,0,0,0.022222222222222223,111.11111111111113,0)" xlink:href="#aA"/><use transform="matrix(0.022222222222222223,0,0,0.022222222222222223,122.22222222222224,0)" xlink:href="#az"/><use transform="matrix(0.022222222222222223,0,0,0.022222222222222223,133.33333333333334,0)" xlink:href="#an"/><use transform="matrix(0.022222222222222223,0,0,0.022222222222222223,144.44444444444446,0)" xlink:href="#aC"/><use transform="matrix(0.022222222222222223,0,0,0.022222222222222223,155.55555555555557,0)" xlink:href="#au"/><use transform="matrix(0.022222222222222223,0,0,0.022222222222222223,166.66666666666669,0)" xlink:href="#av"/><use transform="matrix(0.022222222222222223,0,0,0.022222222222222223,177.7777777777778,0)" xlink:href="#au"/><use transform="matrix(0.022222222222222223,0,0,0.022222222222222223,188.88888888888889,0)" xlink:href="#as"/><use transform="matrix(0.022222222222222223,0,0,0.022222222222222223,200.00000000000006,0)" xlink:href="#az"/><use transform="matrix(0.022222222222222223,0,0,0.022222222222222223,211.11111111111117,0)" xlink:href="#aJ"/><use transform="matrix(0.022222222222222223,0,0,0.022222222222222223,222.22222222222226,0)" xlink:href="#aK"/><use transform="matrix(0.022222222222222223,0,0,0.022222222222222223,233.33333333333337,0)" xlink:href="#ap"/></g><g id="n"><use transform="matrix(0.022222222222222223,0,0,0.022222222222222223,0,0)" xlink:href="#aE"/><use transform="matrix(0.022222222222222223,0,0,0.022222222222222223,11.11111111111111,0)" xlink:href="#ar"/><use transform="matrix(0.022222222222222223,0,0,0.022222222222222223,22.22222222222222,0)" xlink:href="#an"/><use transform="matrix(0.022222222222222223,0,0,0.022222222222222223,33.33333333333333,0)" xlink:href="#ao"/></g><path fill="#3a414a" d="M700-1294L426-551h549zm-114-199h229L1384 0h-210l-136-383H365L229 0H16" id="aL"/><path fill="#3a414a" d="M571-1147c182 0 288 74 359 197v-606h184V0H930v-168C858-45 753 29 571 29c-292 0-458-272-458-588s166-588 458-588zm45 154c-217 0-313 195-313 434s96 434 313 434 314-195 314-434-97-434-314-434" id="aM"/><g id="o"><use transform="matrix(0.010850694444444444,0,0,0.010850694444444444,0,0)" xlink:href="#aL"/><use transform="matrix(0.010850694444444444,0,0,0.010850694444444444,14.811197916666666,0)" xlink:href="#aM"/></g><use transform="matrix(0.022222222222222223,0,0,0.022222222222222223,0,0)" xlink:href="#am" id="p"/><g id="q"><use transform="matrix(0.022222222222222223,0,0,0.022222222222222223,0,0)" xlink:href="#an"/><use transform="matrix(0.022222222222222223,0,0,0.022222222222222223,11.11111111111111,0)" xlink:href="#ao"/><use transform="matrix(0.022222222222222223,0,0,0.022222222222222223,22.22222222222222,0)" xlink:href="#ap"/></g><g id="r"><use transform="matrix(0.022222222222222223,0,0,0.022222222222222223,0,0)" xlink:href="#aq"/><use transform="matrix(0.022222222222222223,0,0,0.022222222222222223,11.11111111111111,0)" xlink:href="#ar"/><use transform="matrix(0.022222222222222223,0,0,0.022222222222222223,22.22222222222222,0)" xlink:href="#as"/><use transform="matrix(0.022222222222222223,0,0,0.022222222222222223,33.33333333333333,0)" xlink:href="#at"/></g><g id="s"><use transform="matrix(0.022222222222222223,0,0,0.022222222222222223,0,0)" xlink:href="#az"/><use transform="matrix(0.022222222222222223,0,0,0.022222222222222223,11.11111111111111,0)" xlink:href="#an"/><use transform="matrix(0.022222222222222223,0,0,0.022222222222222223,22.22222222222222,0)" xlink:href="#az"/><use transform="matrix(0.022222222222222223,0,0,0.022222222222222223,33.33333333333333,0)" xlink:href="#ax"/><use transform="matrix(0.022222222222222223,0,0,0.022222222222222223,44.44444444444444,0)" xlink:href="#au"/><use transform="matrix(0.022222222222222223,0,0,0.022222222222222223,55.55555555555556,0)" xlink:href="#ap"/></g><path fill="#3a414a" d="M457-381l-51 59c-8-6-3-15-7-23-3-5-40-60-118-60-84 0-151 65-151 169 0 107 68 182 157 182 46 0 90-21 121-56l42 49c-44 47-105 72-169 72C152 11 56-90 56-228c0-137 96-238 230-238 73 0 135 32 171 85" id="aN"/><g id="t"><use transform="matrix(0.022222222222222223,0,0,0.022222222222222223,0,0)" xlink:href="#ao"/><use transform="matrix(0.022222222222222223,0,0,0.022222222222222223,11.11111111111111,0)" xlink:href="#au"/><use transform="matrix(0.022222222222222223,0,0,0.022222222222222223,22.22222222222222,0)" xlink:href="#aC"/><use transform="matrix(0.022222222222222223,0,0,0.022222222222222223,33.33333333333333,0)" xlink:href="#aN"/><use transform="matrix(0.022222222222222223,0,0,0.022222222222222223,44.44444444444444,0)" xlink:href="#aA"/><use transform="matrix(0.022222222222222223,0,0,0.022222222222222223,55.55555555555556,0)" xlink:href="#an"/><use transform="matrix(0.022222222222222223,0,0,0.022222222222222223,66.66666666666667,0)" xlink:href="#aB"/><use transform="matrix(0.022222222222222223,0,0,0.022222222222222223,77.77777777777779,0)" xlink:href="#az"/><use transform="matrix(0.022222222222222223,0,0,0.022222222222222223,88.8888888888889,0)" xlink:href="#an"/><use transform="matrix(0.022222222222222223,0,0,0.022222222222222223,100.00000000000003,0)" xlink:href="#ar"/><use transform="matrix(0.022222222222222223,0,0,0.022222222222222223,111.11111111111113,0)" xlink:href="#as"/><use transform="matrix(0.022222222222222223,0,0,0.022222222222222223,122.22222222222224,0)" xlink:href="#ap"/></g><path fill="#3a414a" d="M222 11C125 11 62-87 62-202l1-255h72v255c-10 73 36 159 104 155 73-5 123-71 123-158v-252h73v416c0 13 1 27 5 41h-76c-4-23-1-46-1-70-30 50-84 81-141 81" id="aO"/><g id="u"><use transform="matrix(0.022222222222222223,0,0,0.022222222222222223,0,0)" xlink:href="#aO"/><use transform="matrix(0.022222222222222223,0,0,0.022222222222222223,11.11111111111111,0)" xlink:href="#aC"/><use transform="matrix(0.022222222222222223,0,0,0.022222222222222223,22.22222222222222,0)" xlink:href="#au"/><use transform="matrix(0.022222222222222223,0,0,0.022222222222222223,33.33333333333333,0)" xlink:href="#aA"/><use transform="matrix(0.022222222222222223,0,0,0.022222222222222223,44.44444444444444,0)" xlink:href="#ap"/></g><path fill="#3a414a" d="M252 11C136 11 50-82 50-215v-408h79c5 13-10 20-10 32v377c-10 92 55 166 134 166s134-75 134-169v-406h67v405c0 46-1 89-25 132-35 65-105 97-177 97" id="aP"/><g id="v"><use transform="matrix(0.022222222222222223,0,0,0.022222222222222223,0,0)" xlink:href="#aP"/><use transform="matrix(0.022222222222222223,0,0,0.022222222222222223,11.11111111111111,0)" xlink:href="#aC"/><use transform="matrix(0.022222222222222223,0,0,0.022222222222222223,22.22222222222222,0)" xlink:href="#au"/><use transform="matrix(0.022222222222222223,0,0,0.022222222222222223,33.33333333333333,0)" xlink:href="#aA"/></g><use transform="matrix(0.022222222222222223,0,0,0.022222222222222223,0,0)" xlink:href="#aI" id="w"/><g id="x"><use transform="matrix(0.022222222222222223,0,0,0.022222222222222223,0,0)" xlink:href="#aB"/><use transform="matrix(0.022222222222222223,0,0,0.022222222222222223,11.11111111111111,0)" xlink:href="#ar"/><use transform="matrix(0.022222222222222223,0,0,0.022222222222222223,22.22222222222222,0)" xlink:href="#aC"/><use transform="matrix(0.022222222222222223,0,0,0.022222222222222223,33.33333333333333,0)" xlink:href="#az"/><use transform="matrix(0.022222222222222223,0,0,0.022222222222222223,44.44444444444444,0)" xlink:href="#aG"/><use transform="matrix(0.022222222222222223,0,0,0.022222222222222223,55.55555555555556,0)" xlink:href="#ao"/><use transform="matrix(0.022222222222222223,0,0,0.022222222222222223,66.66666666666667,0)" xlink:href="#aJ"/><use transform="matrix(0.022222222222222223,0,0,0.022222222222222223,77.77777777777779,0)" xlink:href="#aK"/><use transform="matrix(0.022222222222222223,0,0,0.022222222222222223,88.8888888888889,0)" xlink:href="#ap"/></g><g id="y"><use transform="matrix(0.022222222222222223,0,0,0.022222222222222223,0,0)" xlink:href="#aE"/><use transform="matrix(0.022222222222222223,0,0,0.022222222222222223,11.11111111111111,0)" xlink:href="#ar"/><use transform="matrix(0.022222222222222223,0,0,0.022222222222222223,22.22222222222222,0)" xlink:href="#an"/><use transform="matrix(0.022222222222222223,0,0,0.022222222222222223,33.33333333333333,0)" xlink:href="#ao"/></g><g id="z"><use transform="matrix(0.022222222222222223,0,0,0.022222222222222223,0,0)" xlink:href="#aA"/><use transform="matrix(0.022222222222222223,0,0,0.022222222222222223,11.11111111111111,0)" xlink:href="#au"/><use transform="matrix(0.022222222222222223,0,0,0.022222222222222223,22.22222222222222,0)" xlink:href="#av"/><use transform="matrix(0.022222222222222223,0,0,0.022222222222222223,33.33333333333333,0)" xlink:href="#ar"/><use transform="matrix(0.022222222222222223,0,0,0.022222222222222223,44.44444444444444,0)" xlink:href="#aE"/><use transform="matrix(0.022222222222222223,0,0,0.022222222222222223,55.55555555555556,0)" xlink:href="#au"/><use transform="matrix(0.022222222222222223,0,0,0.022222222222222223,66.66666666666667,0)" xlink:href="#aG"/><use transform="matrix(0.022222222222222223,0,0,0.022222222222222223,77.77777777777779,0)" xlink:href="#ao"/><use transform="matrix(0.022222222222222223,0,0,0.022222222222222223,88.8888888888889,0)" xlink:href="#aJ"/><use transform="matrix(0.022222222222222223,0,0,0.022222222222222223,100.00000000000003,0)" xlink:href="#aK"/><use transform="matrix(0.022222222222222223,0,0,0.022222222222222223,111.11111111111113,0)" xlink:href="#ap"/></g><g id="A"><use transform="matrix(0.022222222222222223,0,0,0.022222222222222223,0,0)" xlink:href="#aE"/><use transform="matrix(0.022222222222222223,0,0,0.022222222222222223,11.11111111111111,0)" xlink:href="#ar"/><use transform="matrix(0.022222222222222223,0,0,0.022222222222222223,22.22222222222222,0)" xlink:href="#an"/><use transform="matrix(0.022222222222222223,0,0,0.022222222222222223,33.33333333333333,0)" xlink:href="#ao"/></g><path fill="#3a414a" d="M844-1520c199 1 349 56 475 142v213c-119-110-257-189-463-189-358 0-528 236-528 609 0 372 170 608 528 608 206 0 344-79 463-189v211C1191-28 1043 27 844 29c-456 4-729-311-729-774 0-464 273-779 729-775" id="aQ"/><path fill="#3a414a" d="M946-559c0-236-103-432-319-432-218 0-320 194-320 432 0 239 101 432 320 432 216 0 319-195 319-432zm-833 0c0-347 180-588 514-588 333 0 514 242 514 588S959 29 627 29c-333 0-514-242-514-588" id="aR"/><path fill="#3a414a" d="M733-1147c274 0 391 182 391 471V0H940v-670c0-195-67-315-248-317-203-3-321 145-321 354V0H186v-1120h185v174c79-119 182-201 362-201" id="aS"/><path fill="#3a414a" d="M565 0C277-5 190-82 190-369v-608H55v-143h135v-318h185v318h379v143H375v608c5 178 21 215 190 215h189V0H565" id="aT"/><path fill="#3a414a" d="M193-1556h184V0H193v-1556" id="aU"/><g id="B"><use transform="matrix(0.010850694444444444,0,0,0.010850694444444444,0,0)" xlink:href="#aL"/><use transform="matrix(0.010850694444444444,0,0,0.010850694444444444,14.811197916666666,0)" xlink:href="#aM"/><use transform="matrix(0.010850694444444444,0,0,0.010850694444444444,28.917100694444443,0)" xlink:href="#aQ"/><use transform="matrix(0.010850694444444444,0,0,0.010850694444444444,44.43359375,0)" xlink:href="#aR"/><use transform="matrix(0.010850694444444444,0,0,0.010850694444444444,58.029513888888886,0)" xlink:href="#aS"/><use transform="matrix(0.010850694444444444,0,0,0.010850694444444444,72.11371527777777,0)" xlink:href="#aT"/><use transform="matrix(0.010850694444444444,0,0,0.010850694444444444,80.82682291666666,0)" xlink:href="#al"/><use transform="matrix(0.010850694444444444,0,0,0.010850694444444444,89.47482638888889,0)" xlink:href="#aR"/><use transform="matrix(0.010850694444444444,0,0,0.010850694444444444,103.07074652777777,0)" xlink:href="#aU"/><use transform="matrix(0.010850694444444444,0,0,0.010850694444444444,109.24479166666666,0)" xlink:href="#aU"/><use transform="matrix(0.010850694444444444,0,0,0.010850694444444444,115.41883680555556,0)" xlink:href="#ak"/><use transform="matrix(0.010850694444444444,0,0,0.010850694444444444,129.09071180555554,0)" xlink:href="#al"/></g><g id="C"><use transform="matrix(0.022222222222222223,0,0,0.022222222222222223,0,0)" xlink:href="#aw"/><use transform="matrix(0.022222222222222223,0,0,0.022222222222222223,11.11111111111111,0)" xlink:href="#ao"/><use transform="matrix(0.022222222222222223,0,0,0.022222222222222223,22.22222222222222,0)" xlink:href="#ay"/><use transform="matrix(0.022222222222222223,0,0,0.022222222222222223,33.33333333333333,0)" xlink:href="#au"/><use transform="matrix(0.022222222222222223,0,0,0.022222222222222223,44.44444444444444,0)" xlink:href="#aA"/><use transform="matrix(0.022222222222222223,0,0,0.022222222222222223,55.55555555555556,0)" xlink:href="#aE"/><use transform="matrix(0.022222222222222223,0,0,0.022222222222222223,66.66666666666667,0)" xlink:href="#an"/><use transform="matrix(0.022222222222222223,0,0,0.022222222222222223,77.77777777777779,0)" xlink:href="#aN"/><use transform="matrix(0.022222222222222223,0,0,0.022222222222222223,88.8888888888889,0)" xlink:href="#au"/><use transform="matrix(0.022222222222222223,0,0,0.022222222222222223,100.00000000000003,0)" xlink:href="#ap"/></g><g id="D"><use transform="matrix(0.022222222222222223,0,0,0.022222222222222223,0,0)" xlink:href="#aG"/><use transform="matrix(0.022222222222222223,0,0,0.022222222222222223,11.11111111111111,0)" xlink:href="#ao"/><use transform="matrix(0.022222222222222223,0,0,0.022222222222222223,22.22222222222222,0)" xlink:href="#ay"/><use transform="matrix(0.022222222222222223,0,0,0.022222222222222223,33.33333333333333,0)" xlink:href="#au"/><use transform="matrix(0.022222222222222223,0,0,0.022222222222222223,44.44444444444444,0)" xlink:href="#aA"/><use transform="matrix(0.022222222222222223,0,0,0.022222222222222223,55.55555555555556,0)" xlink:href="#aE"/><use transform="matrix(0.022222222222222223,0,0,0.022222222222222223,66.66666666666667,0)" xlink:href="#an"/><use transform="matrix(0.022222222222222223,0,0,0.022222222222222223,77.77777777777779,0)" xlink:href="#aN"/><use transform="matrix(0.022222222222222223,0,0,0.022222222222222223,88.8888888888889,0)" xlink:href="#au"/></g><path fill="#3a414a" d="M460-313C457-127 378 7 187 1H54v-624h145c184-10 263 137 261 310zM120-564v510c75-2 122 10 180-28 50-33 90-102 90-221 0-89-20-179-78-226-59-48-109-32-192-35" id="aV"/><path fill="#3a414a" d="M31-624h432v63H279V1h-71v-562H31v-63" id="aW"/><path fill="#3a414a" d="M471-310c0 55-4 132-37 199C393-28 321 10 254 10 159 10 29-68 29-313s132-317 225-317c68 0 138 37 179 117 34 67 38 145 38 203zM251-564c-65 0-153 56-153 242 0 198 86 263 156 263 42 0 90-23 119-84 26-54 28-117 28-158 0-53-3-113-24-165-29-72-82-98-126-98" id="aX"/><g id="E"><use transform="matrix(0.022222222222222223,0,0,0.022222222222222223,0,0)" xlink:href="#aB"/><use transform="matrix(0.022222222222222223,0,0,0.022222222222222223,11.11111111111111,0)" xlink:href="#ar"/><use transform="matrix(0.022222222222222223,0,0,0.022222222222222223,22.22222222222222,0)" xlink:href="#aC"/><use transform="matrix(0.022222222222222223,0,0,0.022222222222222223,33.33333333333333,0)" xlink:href="#az"/><use transform="matrix(0.022222222222222223,0,0,0.022222222222222223,44.44444444444444,0)" xlink:href="#aG"/><use transform="matrix(0.022222222222222223,0,0,0.022222222222222223,55.55555555555556,0)" xlink:href="#ao"/><use transform="matrix(0.022222222222222223,0,0,0.022222222222222223,66.66666666666667,0)" xlink:href="#aJ"/><use transform="matrix(0.022222222222222223,0,0,0.022222222222222223,77.77777777777779,0)" xlink:href="#aG"/><use transform="matrix(0.022222222222222223,0,0,0.022222222222222223,88.8888888888889,0)" xlink:href="#ao"/><use transform="matrix(0.022222222222222223,0,0,0.022222222222222223,100.00000000000003,0)" xlink:href="#aV"/><use transform="matrix(0.022222222222222223,0,0,0.022222222222222223,111.11111111111113,0)" xlink:href="#aW"/><use transform="matrix(0.022222222222222223,0,0,0.022222222222222223,122.22222222222224,0)" xlink:href="#aX"/></g><g id="F"><use transform="matrix(0.022222222222222223,0,0,0.022222222222222223,0,0)" xlink:href="#aw"/><use transform="matrix(0.022222222222222223,0,0,0.022222222222222223,11.11111111111111,0)" xlink:href="#ao"/><use transform="matrix(0.022222222222222223,0,0,0.022222222222222223,22.22222222222222,0)" xlink:href="#aV"/><use transform="matrix(0.022222222222222223,0,0,0.022222222222222223,33.33333333333333,0)" xlink:href="#aW"/><use transform="matrix(0.022222222222222223,0,0,0.022222222222222223,44.44444444444444,0)" xlink:href="#aX"/><use transform="matrix(0.022222222222222223,0,0,0.022222222222222223,55.55555555555556,0)" xlink:href="#aK"/><use transform="matrix(0.022222222222222223,0,0,0.022222222222222223,66.66666666666667,0)" xlink:href="#ap"/></g><path fill="#3a414a" d="M240-623c116-12 207 69 207 171 0 82-51 153-127 174L464 0h-78L248-275H127V0H56v-623h184zm135 179c0-65-58-113-135-113H127v220h121c73 8 127-44 127-107" id="aY"/><path fill="#3a414a" d="M59-624h382v62H125v205h261v64H125v231h313V0H59v-624" id="aZ"/><path fill="#3a414a" d="M60 71c12 22 12 44 61 44 61 0 93-68 110-117L46-457h89c0 12-6 19-2 30L267-91c40-122 91-235 121-366h75C406-283 326-121 275 52c-29 99-167 167-253 83" id="ba"/><g id="G"><use transform="matrix(0.022222222222222223,0,0,0.022222222222222223,0,0)" xlink:href="#aY"/><use transform="matrix(0.022222222222222223,0,0,0.022222222222222223,11.11111111111111,0)" xlink:href="#au"/><use transform="matrix(0.022222222222222223,0,0,0.022222222222222223,22.22222222222222,0)" xlink:href="#aC"/><use transform="matrix(0.022222222222222223,0,0,0.022222222222222223,33.33333333333333,0)" xlink:href="#aB"/><use transform="matrix(0.022222222222222223,0,0,0.022222222222222223,44.44444444444444,0)" xlink:href="#ar"/><use transform="matrix(0.022222222222222223,0,0,0.022222222222222223,55.55555555555556,0)" xlink:href="#as"/><use transform="matrix(0.022222222222222223,0,0,0.022222222222222223,66.66666666666667,0)" xlink:href="#aC"/><use transform="matrix(0.022222222222222223,0,0,0.022222222222222223,77.77777777777779,0)" xlink:href="#au"/><use transform="matrix(0.022222222222222223,0,0,0.022222222222222223,88.8888888888889,0)" xlink:href="#aZ"/><use transform="matrix(0.022222222222222223,0,0,0.022222222222222223,100.00000000000003,0)" xlink:href="#as"/><use transform="matrix(0.022222222222222223,0,0,0.022222222222222223,111.11111111111113,0)" xlink:href="#az"/><use transform="matrix(0.022222222222222223,0,0,0.022222222222222223,122.22222222222224,0)" xlink:href="#an"/><use transform="matrix(0.022222222222222223,0,0,0.022222222222222223,133.33333333333334,0)" xlink:href="#az"/><use transform="matrix(0.022222222222222223,0,0,0.022222222222222223,144.44444444444446,0)" xlink:href="#ba"/><use transform="matrix(0.022222222222222223,0,0,0.022222222222222223,155.55555555555557,0)" xlink:href="#aF"/><use transform="matrix(0.022222222222222223,0,0,0.022222222222222223,166.66666666666669,0)" xlink:href="#aG"/><use transform="matrix(0.022222222222222223,0,0,0.022222222222222223,177.7777777777778,0)" xlink:href="#ao"/><use transform="matrix(0.022222222222222223,0,0,0.022222222222222223,188.88888888888889,0)" xlink:href="#aV"/><use transform="matrix(0.022222222222222223,0,0,0.022222222222222223,200.00000000000006,0)" xlink:href="#aW"/><use transform="matrix(0.022222222222222223,0,0,0.022222222222222223,211.11111111111117,0)" xlink:href="#aX"/><use transform="matrix(0.022222222222222223,0,0,0.022222222222222223,222.22222222222226,0)" xlink:href="#aH"/></g><g id="H"><use transform="matrix(0.022222222222222223,0,0,0.022222222222222223,0,0)" xlink:href="#ao"/><use transform="matrix(0.022222222222222223,0,0,0.022222222222222223,11.11111111111111,0)" xlink:href="#au"/><use transform="matrix(0.022222222222222223,0,0,0.022222222222222223,22.22222222222222,0)" xlink:href="#ax"/><use transform="matrix(0.022222222222222223,0,0,0.022222222222222223,33.33333333333333,0)" xlink:href="#au"/><use transform="matrix(0.022222222222222223,0,0,0.022222222222222223,44.44444444444444,0)" xlink:href="#az"/><use transform="matrix(0.022222222222222223,0,0,0.022222222222222223,55.55555555555556,0)" xlink:href="#au"/><use transform="matrix(0.022222222222222223,0,0,0.022222222222222223,66.66666666666667,0)" xlink:href="#aG"/><use transform="matrix(0.022222222222222223,0,0,0.022222222222222223,77.77777777777779,0)" xlink:href="#ao"/><use transform="matrix(0.022222222222222223,0,0,0.022222222222222223,88.8888888888889,0)" xlink:href="#aJ"/><use transform="matrix(0.022222222222222223,0,0,0.022222222222222223,100.00000000000003,0)" xlink:href="#aq"/><use transform="matrix(0.022222222222222223,0,0,0.022222222222222223,111.11111111111113,0)" xlink:href="#ar"/><use transform="matrix(0.022222222222222223,0,0,0.022222222222222223,122.22222222222224,0)" xlink:href="#as"/><use transform="matrix(0.022222222222222223,0,0,0.022222222222222223,133.33333333333334,0)" xlink:href="#at"/></g><g id="I"><use transform="matrix(0.022222222222222223,0,0,0.022222222222222223,0,0)" xlink:href="#an"/><use transform="matrix(0.022222222222222223,0,0,0.022222222222222223,11.11111111111111,0)" xlink:href="#ao"/><use transform="matrix(0.022222222222222223,0,0,0.022222222222222223,22.22222222222222,0)" xlink:href="#aK"/><use transform="matrix(0.022222222222222223,0,0,0.022222222222222223,33.33333333333333,0)" xlink:href="#ap"/></g><g id="J"><use transform="matrix(0.022222222222222223,0,0,0.022222222222222223,0,0)" xlink:href="#at"/><use transform="matrix(0.022222222222222223,0,0,0.022222222222222223,11.11111111111111,0)" xlink:href="#au"/><use transform="matrix(0.022222222222222223,0,0,0.022222222222222223,22.22222222222222,0)" xlink:href="#az"/><use transform="matrix(0.022222222222222223,0,0,0.022222222222222223,33.33333333333333,0)" xlink:href="#aG"/><use transform="matrix(0.022222222222222223,0,0,0.022222222222222223,44.44444444444444,0)" xlink:href="#ao"/><use transform="matrix(0.022222222222222223,0,0,0.022222222222222223,55.55555555555556,0)" xlink:href="#aC"/><use transform="matrix(0.022222222222222223,0,0,0.022222222222222223,66.66666666666667,0)" xlink:href="#aJ"/><use transform="matrix(0.022222222222222223,0,0,0.022222222222222223,77.77777777777779,0)" xlink:href="#aK"/><use transform="matrix(0.022222222222222223,0,0,0.022222222222222223,88.8888888888889,0)" xlink:href="#ap"/></g><g id="K"><use transform="matrix(0.022222222222222223,0,0,0.022222222222222223,0,0)" xlink:href="#aY"/><use transform="matrix(0.022222222222222223,0,0,0.022222222222222223,11.11111111111111,0)" xlink:href="#au"/><use transform="matrix(0.022222222222222223,0,0,0.022222222222222223,22.22222222222222,0)" xlink:href="#aC"/><use transform="matrix(0.022222222222222223,0,0,0.022222222222222223,33.33333333333333,0)" xlink:href="#aB"/><use transform="matrix(0.022222222222222223,0,0,0.022222222222222223,44.44444444444444,0)" xlink:href="#ar"/><use transform="matrix(0.022222222222222223,0,0,0.022222222222222223,55.55555555555556,0)" xlink:href="#as"/><use transform="matrix(0.022222222222222223,0,0,0.022222222222222223,66.66666666666667,0)" xlink:href="#aC"/><use transform="matrix(0.022222222222222223,0,0,0.022222222222222223,77.77777777777779,0)" xlink:href="#au"/><use transform="matrix(0.022222222222222223,0,0,0.022222222222222223,88.8888888888889,0)" xlink:href="#aZ"/><use transform="matrix(0.022222222222222223,0,0,0.022222222222222223,100.00000000000003,0)" xlink:href="#as"/><use transform="matrix(0.022222222222222223,0,0,0.022222222222222223,111.11111111111113,0)" xlink:href="#az"/><use transform="matrix(0.022222222222222223,0,0,0.022222222222222223,122.22222222222224,0)" xlink:href="#an"/><use transform="matrix(0.022222222222222223,0,0,0.022222222222222223,133.33333333333334,0)" xlink:href="#az"/><use transform="matrix(0.022222222222222223,0,0,0.022222222222222223,144.44444444444446,0)" xlink:href="#ba"/><use transform="matrix(0.022222222222222223,0,0,0.022222222222222223,155.55555555555557,0)" xlink:href="#aF"/><use transform="matrix(0.022222222222222223,0,0,0.022222222222222223,166.66666666666669,0)" xlink:href="#ay"/><use transform="matrix(0.022222222222222223,0,0,0.022222222222222223,177.7777777777778,0)" xlink:href="#au"/><use transform="matrix(0.022222222222222223,0,0,0.022222222222222223,188.88888888888889,0)" xlink:href="#az"/><use transform="matrix(0.022222222222222223,0,0,0.022222222222222223,200.00000000000006,0)" xlink:href="#aF"/><use transform="matrix(0.022222222222222223,0,0,0.022222222222222223,211.11111111111117,0)" xlink:href="#aG"/><use transform="matrix(0.022222222222222223,0,0,0.022222222222222223,222.22222222222226,0)" xlink:href="#ao"/><use transform="matrix(0.022222222222222223,0,0,0.022222222222222223,233.33333333333337,0)" xlink:href="#aV"/><use transform="matrix(0.022222222222222223,0,0,0.022222222222222223,244.44444444444449,0)" xlink:href="#aW"/><use transform="matrix(0.022222222222222223,0,0,0.022222222222222223,255.5555555555556,0)" xlink:href="#aX"/><use transform="matrix(0.022222222222222223,0,0,0.022222222222222223,266.6666666666667,0)" xlink:href="#aH"/><use transform="matrix(0.022222222222222223,0,0,0.022222222222222223,277.77777777777777,0)" xlink:href="#aH"/></g><path fill="#3a414a" d="M162-475c-12-115 77-196 181-196 57 0 107 24 140 63l-33 66c-10 1-6-13-10-20-19-29-56-52-100-52-73 0-120 71-109 149v35h150v57H231V0h-69v-373H63v-57h99v-45" id="bb"/><g id="L"><use transform="matrix(0.022222222222222223,0,0,0.022222222222222223,0,0)" xlink:href="#at"/><use transform="matrix(0.022222222222222223,0,0,0.022222222222222223,11.11111111111111,0)" xlink:href="#au"/><use transform="matrix(0.022222222222222223,0,0,0.022222222222222223,22.22222222222222,0)" xlink:href="#az"/><use transform="matrix(0.022222222222222223,0,0,0.022222222222222223,33.33333333333333,0)" xlink:href="#ay"/><use transform="matrix(0.022222222222222223,0,0,0.022222222222222223,44.44444444444444,0)" xlink:href="#aB"/><use transform="matrix(0.022222222222222223,0,0,0.022222222222222223,55.55555555555556,0)" xlink:href="#au"/><use transform="matrix(0.022222222222222223,0,0,0.022222222222222223,66.66666666666667,0)" xlink:href="#aN"/><use transform="matrix(0.022222222222222223,0,0,0.022222222222222223,77.77777777777779,0)" xlink:href="#an"/><use transform="matrix(0.022222222222222223,0,0,0.022222222222222223,88.8888888888889,0)" xlink:href="#bb"/><use transform="matrix(0.022222222222222223,0,0,0.022222222222222223,100.00000000000003,0)" xlink:href="#an"/><use transform="matrix(0.022222222222222223,0,0,0.022222222222222223,111.11111111111113,0)" xlink:href="#aN"/><use transform="matrix(0.022222222222222223,0,0,0.022222222222222223,122.22222222222224,0)" xlink:href="#aG"/><use transform="matrix(0.022222222222222223,0,0,0.022222222222222223,133.33333333333334,0)" xlink:href="#ao"/><use transform="matrix(0.022222222222222223,0,0,0.022222222222222223,144.44444444444446,0)" xlink:href="#aJ"/><use transform="matrix(0.022222222222222223,0,0,0.022222222222222223,155.55555555555557,0)" xlink:href="#aq"/><use transform="matrix(0.022222222222222223,0,0,0.022222222222222223,166.66666666666669,0)" xlink:href="#ar"/><use transform="matrix(0.022222222222222223,0,0,0.022222222222222223,177.7777777777778,0)" xlink:href="#as"/><use transform="matrix(0.022222222222222223,0,0,0.022222222222222223,188.88888888888889,0)" xlink:href="#at"/></g><g id="M"><use transform="matrix(0.022222222222222223,0,0,0.022222222222222223,0,0)" xlink:href="#au"/><use transform="matrix(0.022222222222222223,0,0,0.022222222222222223,11.11111111111111,0)" xlink:href="#ao"/><use transform="matrix(0.022222222222222223,0,0,0.022222222222222223,22.22222222222222,0)" xlink:href="#an"/><use transform="matrix(0.022222222222222223,0,0,0.022222222222222223,33.33333333333333,0)" xlink:href="#az"/><use transform="matrix(0.022222222222222223,0,0,0.022222222222222223,44.44444444444444,0)" xlink:href="#aG"/><use transform="matrix(0.022222222222222223,0,0,0.022222222222222223,55.55555555555556,0)" xlink:href="#ao"/><use transform="matrix(0.022222222222222223,0,0,0.022222222222222223,66.66666666666667,0)" xlink:href="#aJ"/><use transform="matrix(0.022222222222222223,0,0,0.022222222222222223,77.77777777777779,0)" xlink:href="#aq"/><use transform="matrix(0.022222222222222223,0,0,0.022222222222222223,88.8888888888889,0)" xlink:href="#ar"/><use transform="matrix(0.022222222222222223,0,0,0.022222222222222223,100.00000000000003,0)" xlink:href="#as"/><use transform="matrix(0.022222222222222223,0,0,0.022222222222222223,111.11111111111113,0)" xlink:href="#at"/></g><g id="N"><use transform="matrix(0.022222222222222223,0,0,0.022222222222222223,0,0)" xlink:href="#an"/><use transform="matrix(0.022222222222222223,0,0,0.022222222222222223,11.11111111111111,0)" xlink:href="#ao"/><use transform="matrix(0.022222222222222223,0,0,0.022222222222222223,22.22222222222222,0)" xlink:href="#aK"/><use transform="matrix(0.022222222222222223,0,0,0.022222222222222223,33.33333333333333,0)" xlink:href="#ap"/><use transform="matrix(0.022222222222222223,0,0,0.022222222222222223,44.44444444444444,0)" xlink:href="#aY"/><use transform="matrix(0.022222222222222223,0,0,0.022222222222222223,55.55555555555556,0)" xlink:href="#au"/><use transform="matrix(0.022222222222222223,0,0,0.022222222222222223,66.66666666666667,0)" xlink:href="#aC"/><use transform="matrix(0.022222222222222223,0,0,0.022222222222222223,77.77777777777779,0)" xlink:href="#aB"/><use transform="matrix(0.022222222222222223,0,0,0.022222222222222223,88.8888888888889,0)" xlink:href="#ar"/><use transform="matrix(0.022222222222222223,0,0,0.022222222222222223,100.00000000000003,0)" xlink:href="#as"/><use transform="matrix(0.022222222222222223,0,0,0.022222222222222223,111.11111111111113,0)" xlink:href="#aC"/><use transform="matrix(0.022222222222222223,0,0,0.022222222222222223,122.22222222222224,0)" xlink:href="#au"/><use transform="matrix(0.022222222222222223,0,0,0.022222222222222223,133.33333333333334,0)" xlink:href="#aZ"/><use transform="matrix(0.022222222222222223,0,0,0.022222222222222223,144.44444444444446,0)" xlink:href="#as"/><use transform="matrix(0.022222222222222223,0,0,0.022222222222222223,155.55555555555557,0)" xlink:href="#az"/><use transform="matrix(0.022222222222222223,0,0,0.022222222222222223,166.66666666666669,0)" xlink:href="#an"/><use transform="matrix(0.022222222222222223,0,0,0.022222222222222223,177.7777777777778,0)" xlink:href="#az"/><use transform="matrix(0.022222222222222223,0,0,0.022222222222222223,188.88888888888889,0)" xlink:href="#ba"/><use transform="matrix(0.022222222222222223,0,0,0.022222222222222223,200.00000000000006,0)" xlink:href="#aF"/><use transform="matrix(0.022222222222222223,0,0,0.022222222222222223,211.11111111111117,0)" xlink:href="#aG"/><use transform="matrix(0.022222222222222223,0,0,0.022222222222222223,222.22222222222226,0)" xlink:href="#ao"/><use transform="matrix(0.022222222222222223,0,0,0.022222222222222223,233.33333333333337,0)" xlink:href="#aV"/><use transform="matrix(0.022222222222222223,0,0,0.022222222222222223,244.44444444444449,0)" xlink:href="#aW"/><use transform="matrix(0.022222222222222223,0,0,0.022222222222222223,255.5555555555556,0)" xlink:href="#aX"/><use transform="matrix(0.022222222222222223,0,0,0.022222222222222223,266.6666666666667,0)" xlink:href="#aH"/></g><g id="O"><use transform="matrix(0.010850694444444444,0,0,0.010850694444444444,0,0)" xlink:href="#ai"/><use transform="matrix(0.010850694444444444,0,0,0.010850694444444444,16.26519097222222,0)" xlink:href="#aj"/><use transform="matrix(0.010850694444444444,0,0,0.010850694444444444,27.842881944444443,0)" xlink:href="#ak"/><use transform="matrix(0.010850694444444444,0,0,0.010850694444444444,41.51475694444444,0)" xlink:href="#al"/><use transform="matrix(0.010850694444444444,0,0,0.010850694444444444,50.651041666666664,0)" xlink:href="#aQ"/><use transform="matrix(0.010850694444444444,0,0,0.010850694444444444,66.16753472222221,0)" xlink:href="#aR"/><use transform="matrix(0.010850694444444444,0,0,0.010850694444444444,79.7634548611111,0)" xlink:href="#aS"/><use transform="matrix(0.010850694444444444,0,0,0.010850694444444444,93.84765624999997,0)" xlink:href="#aT"/><use transform="matrix(0.010850694444444444,0,0,0.010850694444444444,102.56076388888887,0)" xlink:href="#al"/><use transform="matrix(0.010850694444444444,0,0,0.010850694444444444,111.20876736111109,0)" xlink:href="#aR"/><use transform="matrix(0.010850694444444444,0,0,0.010850694444444444,124.80468749999997,0)" xlink:href="#aU"/><use transform="matrix(0.010850694444444444,0,0,0.010850694444444444,130.97873263888886,0)" xlink:href="#aU"/><use transform="matrix(0.010850694444444444,0,0,0.010850694444444444,137.15277777777774,0)" xlink:href="#ak"/><use transform="matrix(0.010850694444444444,0,0,0.010850694444444444,150.82465277777774,0)" xlink:href="#al"/></g><g id="P"><use transform="matrix(0.022222222222222223,0,0,0.022222222222222223,0,0)" xlink:href="#aO"/><use transform="matrix(0.022222222222222223,0,0,0.022222222222222223,11.11111111111111,0)" xlink:href="#aC"/><use transform="matrix(0.022222222222222223,0,0,0.022222222222222223,22.22222222222222,0)" xlink:href="#au"/><use transform="matrix(0.022222222222222223,0,0,0.022222222222222223,33.33333333333333,0)" xlink:href="#aA"/><use transform="matrix(0.022222222222222223,0,0,0.022222222222222223,44.44444444444444,0)" xlink:href="#ay"/><use transform="matrix(0.022222222222222223,0,0,0.022222222222222223,55.55555555555556,0)" xlink:href="#au"/><use transform="matrix(0.022222222222222223,0,0,0.022222222222222223,66.66666666666667,0)" xlink:href="#aA"/><use transform="matrix(0.022222222222222223,0,0,0.022222222222222223,77.77777777777779,0)" xlink:href="#aE"/><use transform="matrix(0.022222222222222223,0,0,0.022222222222222223,88.8888888888889,0)" xlink:href="#an"/><use transform="matrix(0.022222222222222223,0,0,0.022222222222222223,100.00000000000003,0)" xlink:href="#aN"/><use transform="matrix(0.022222222222222223,0,0,0.022222222222222223,111.11111111111113,0)" xlink:href="#au"/><use transform="matrix(0.022222222222222223,0,0,0.022222222222222223,122.22222222222224,0)" xlink:href="#ap"/></g><g id="Q"><use transform="matrix(0.022222222222222223,0,0,0.022222222222222223,0,0)" xlink:href="#aP"/><use transform="matrix(0.022222222222222223,0,0,0.022222222222222223,11.11111111111111,0)" xlink:href="#aC"/><use transform="matrix(0.022222222222222223,0,0,0.022222222222222223,22.22222222222222,0)" xlink:href="#au"/><use transform="matrix(0.022222222222222223,0,0,0.022222222222222223,33.33333333333333,0)" xlink:href="#aA"/><use transform="matrix(0.022222222222222223,0,0,0.022222222222222223,44.44444444444444,0)" xlink:href="#ay"/><use transform="matrix(0.022222222222222223,0,0,0.022222222222222223,55.55555555555556,0)" xlink:href="#au"/><use transform="matrix(0.022222222222222223,0,0,0.022222222222222223,66.66666666666667,0)" xlink:href="#aA"/><use transform="matrix(0.022222222222222223,0,0,0.022222222222222223,77.77777777777779,0)" xlink:href="#aE"/><use transform="matrix(0.022222222222222223,0,0,0.022222222222222223,88.8888888888889,0)" xlink:href="#an"/><use transform="matrix(0.022222222222222223,0,0,0.022222222222222223,100.00000000000003,0)" xlink:href="#aN"/><use transform="matrix(0.022222222222222223,0,0,0.022222222222222223,111.11111111111113,0)" xlink:href="#au"/></g><g id="R"><use transform="matrix(0.022222222222222223,0,0,0.022222222222222223,0,0)" xlink:href="#aw"/><use transform="matrix(0.022222222222222223,0,0,0.022222222222222223,11.11111111111111,0)" xlink:href="#ao"/><use transform="matrix(0.022222222222222223,0,0,0.022222222222222223,22.22222222222222,0)" xlink:href="#ao"/><use transform="matrix(0.022222222222222223,0,0,0.022222222222222223,33.33333333333333,0)" xlink:href="#aP"/><use transform="matrix(0.022222222222222223,0,0,0.022222222222222223,44.44444444444444,0)" xlink:href="#aC"/><use transform="matrix(0.022222222222222223,0,0,0.022222222222222223,55.55555555555556,0)" xlink:href="#au"/><use transform="matrix(0.022222222222222223,0,0,0.022222222222222223,66.66666666666667,0)" xlink:href="#aA"/><use transform="matrix(0.022222222222222223,0,0,0.022222222222222223,77.77777777777779,0)" xlink:href="#aJ"/><use transform="matrix(0.022222222222222223,0,0,0.022222222222222223,88.8888888888889,0)" xlink:href="#aP"/><use transform="matrix(0.022222222222222223,0,0,0.022222222222222223,100.00000000000003,0)" xlink:href="#aC"/><use transform="matrix(0.022222222222222223,0,0,0.022222222222222223,111.11111111111113,0)" xlink:href="#au"/><use transform="matrix(0.022222222222222223,0,0,0.022222222222222223,122.22222222222224,0)" xlink:href="#aA"/><use transform="matrix(0.022222222222222223,0,0,0.022222222222222223,133.33333333333334,0)" xlink:href="#aV"/><use transform="matrix(0.022222222222222223,0,0,0.022222222222222223,144.44444444444446,0)" xlink:href="#aW"/><use transform="matrix(0.022222222222222223,0,0,0.022222222222222223,155.55555555555557,0)" xlink:href="#aX"/></g><g id="S"><use transform="matrix(0.022222222222222223,0,0,0.022222222222222223,0,0)" xlink:href="#aO"/><use transform="matrix(0.022222222222222223,0,0,0.022222222222222223,11.11111111111111,0)" xlink:href="#aC"/><use transform="matrix(0.022222222222222223,0,0,0.022222222222222223,22.22222222222222,0)" xlink:href="#au"/><use transform="matrix(0.022222222222222223,0,0,0.022222222222222223,33.33333333333333,0)" xlink:href="#aA"/><use transform="matrix(0.022222222222222223,0,0,0.022222222222222223,44.44444444444444,0)" xlink:href="#aV"/><use transform="matrix(0.022222222222222223,0,0,0.022222222222222223,55.55555555555556,0)" xlink:href="#aW"/><use transform="matrix(0.022222222222222223,0,0,0.022222222222222223,66.66666666666667,0)" xlink:href="#aX"/><use transform="matrix(0.022222222222222223,0,0,0.022222222222222223,77.77777777777779,0)" xlink:href="#aK"/><use transform="matrix(0.022222222222222223,0,0,0.022222222222222223,88.8888888888889,0)" xlink:href="#ap"/></g><g id="T"><use transform="matrix(0.022222222222222223,0,0,0.022222222222222223,0,0)" xlink:href="#aY"/><use transform="matrix(0.022222222222222223,0,0,0.022222222222222223,11.11111111111111,0)" xlink:href="#au"/><use transform="matrix(0.022222222222222223,0,0,0.022222222222222223,22.22222222222222,0)" xlink:href="#aC"/><use transform="matrix(0.022222222222222223,0,0,0.022222222222222223,33.33333333333333,0)" xlink:href="#aB"/><use transform="matrix(0.022222222222222223,0,0,0.022222222222222223,44.44444444444444,0)" xlink:href="#ar"/><use transform="matrix(0.022222222222222223,0,0,0.022222222222222223,55.55555555555556,0)" xlink:href="#as"/><use transform="matrix(0.022222222222222223,0,0,0.022222222222222223,66.66666666666667,0)" xlink:href="#aC"/><use transform="matrix(0.022222222222222223,0,0,0.022222222222222223,77.77777777777779,0)" xlink:href="#au"/><use transform="matrix(0.022222222222222223,0,0,0.022222222222222223,88.8888888888889,0)" xlink:href="#aZ"/><use transform="matrix(0.022222222222222223,0,0,0.022222222222222223,100.00000000000003,0)" xlink:href="#as"/><use transform="matrix(0.022222222222222223,0,0,0.022222222222222223,111.11111111111113,0)" xlink:href="#az"/><use transform="matrix(0.022222222222222223,0,0,0.022222222222222223,122.22222222222224,0)" xlink:href="#an"/><use transform="matrix(0.022222222222222223,0,0,0.022222222222222223,133.33333333333334,0)" xlink:href="#az"/><use transform="matrix(0.022222222222222223,0,0,0.022222222222222223,144.44444444444446,0)" xlink:href="#ba"/><use transform="matrix(0.022222222222222223,0,0,0.022222222222222223,155.55555555555557,0)" xlink:href="#aF"/><use transform="matrix(0.022222222222222223,0,0,0.022222222222222223,166.66666666666669,0)" xlink:href="#aP"/><use transform="matrix(0.022222222222222223,0,0,0.022222222222222223,177.7777777777778,0)" xlink:href="#aC"/><use transform="matrix(0.022222222222222223,0,0,0.022222222222222223,188.88888888888889,0)" xlink:href="#au"/><use transform="matrix(0.022222222222222223,0,0,0.022222222222222223,200.00000000000006,0)" xlink:href="#aA"/><use transform="matrix(0.022222222222222223,0,0,0.022222222222222223,211.11111111111117,0)" xlink:href="#aV"/><use transform="matrix(0.022222222222222223,0,0,0.022222222222222223,222.22222222222226,0)" xlink:href="#aW"/><use transform="matrix(0.022222222222222223,0,0,0.022222222222222223,233.33333333333337,0)" xlink:href="#aX"/><use transform="matrix(0.022222222222222223,0,0,0.022222222222222223,244.44444444444449,0)" xlink:href="#aH"/></g><g id="U"><use transform="matrix(0.022222222222222223,0,0,0.022222222222222223,0,0)" xlink:href="#ao"/><use transform="matrix(0.022222222222222223,0,0,0.022222222222222223,11.11111111111111,0)" xlink:href="#au"/><use transform="matrix(0.022222222222222223,0,0,0.022222222222222223,22.22222222222222,0)" xlink:href="#ax"/><use transform="matrix(0.022222222222222223,0,0,0.022222222222222223,33.33333333333333,0)" xlink:href="#au"/><use transform="matrix(0.022222222222222223,0,0,0.022222222222222223,44.44444444444444,0)" xlink:href="#az"/><use transform="matrix(0.022222222222222223,0,0,0.022222222222222223,55.55555555555556,0)" xlink:href="#au"/><use transform="matrix(0.022222222222222223,0,0,0.022222222222222223,66.66666666666667,0)" xlink:href="#aP"/><use transform="matrix(0.022222222222222223,0,0,0.022222222222222223,77.77777777777779,0)" xlink:href="#aC"/><use transform="matrix(0.022222222222222223,0,0,0.022222222222222223,88.8888888888889,0)" xlink:href="#au"/><use transform="matrix(0.022222222222222223,0,0,0.022222222222222223,100.00000000000003,0)" xlink:href="#aA"/><use transform="matrix(0.022222222222222223,0,0,0.022222222222222223,111.11111111111113,0)" xlink:href="#aJ"/><use transform="matrix(0.022222222222222223,0,0,0.022222222222222223,122.22222222222224,0)" xlink:href="#aq"/><use transform="matrix(0.022222222222222223,0,0,0.022222222222222223,133.33333333333334,0)" xlink:href="#ar"/><use transform="matrix(0.022222222222222223,0,0,0.022222222222222223,144.44444444444446,0)" xlink:href="#as"/><use transform="matrix(0.022222222222222223,0,0,0.022222222222222223,155.55555555555557,0)" xlink:href="#at"/></g><g id="V"><use transform="matrix(0.022222222222222223,0,0,0.022222222222222223,0,0)" xlink:href="#at"/><use transform="matrix(0.022222222222222223,0,0,0.022222222222222223,11.11111111111111,0)" xlink:href="#au"/><use transform="matrix(0.022222222222222223,0,0,0.022222222222222223,22.22222222222222,0)" xlink:href="#az"/><use transform="matrix(0.022222222222222223,0,0,0.022222222222222223,33.33333333333333,0)" xlink:href="#aP"/><use transform="matrix(0.022222222222222223,0,0,0.022222222222222223,44.44444444444444,0)" xlink:href="#aC"/><use transform="matrix(0.022222222222222223,0,0,0.022222222222222223,55.55555555555556,0)" xlink:href="#au"/><use transform="matrix(0.022222222222222223,0,0,0.022222222222222223,66.66666666666667,0)" xlink:href="#aA"/><use transform="matrix(0.022222222222222223,0,0,0.022222222222222223,77.77777777777779,0)" xlink:href="#aC"/><use transform="matrix(0.022222222222222223,0,0,0.022222222222222223,88.8888888888889,0)" xlink:href="#aJ"/><use transform="matrix(0.022222222222222223,0,0,0.022222222222222223,100.00000000000003,0)" xlink:href="#aK"/><use transform="matrix(0.022222222222222223,0,0,0.022222222222222223,111.11111111111113,0)" xlink:href="#ap"/></g><g id="W"><use transform="matrix(0.022222222222222223,0,0,0.022222222222222223,0,0)" xlink:href="#aY"/><use transform="matrix(0.022222222222222223,0,0,0.022222222222222223,11.11111111111111,0)" xlink:href="#au"/><use transform="matrix(0.022222222222222223,0,0,0.022222222222222223,22.22222222222222,0)" xlink:href="#aC"/><use transform="matrix(0.022222222222222223,0,0,0.022222222222222223,33.33333333333333,0)" xlink:href="#aB"/><use transform="matrix(0.022222222222222223,0,0,0.022222222222222223,44.44444444444444,0)" xlink:href="#ar"/><use transform="matrix(0.022222222222222223,0,0,0.022222222222222223,55.55555555555556,0)" xlink:href="#as"/><use transform="matrix(0.022222222222222223,0,0,0.022222222222222223,66.66666666666667,0)" xlink:href="#aC"/><use transform="matrix(0.022222222222222223,0,0,0.022222222222222223,77.77777777777779,0)" xlink:href="#au"/><use transform="matrix(0.022222222222222223,0,0,0.022222222222222223,88.8888888888889,0)" xlink:href="#aZ"/><use transform="matrix(0.022222222222222223,0,0,0.022222222222222223,100.00000000000003,0)" xlink:href="#as"/><use transform="matrix(0.022222222222222223,0,0,0.022222222222222223,111.11111111111113,0)" xlink:href="#az"/><use transform="matrix(0.022222222222222223,0,0,0.022222222222222223,122.22222222222224,0)" xlink:href="#an"/><use transform="matrix(0.022222222222222223,0,0,0.022222222222222223,133.33333333333334,0)" xlink:href="#az"/><use transform="matrix(0.022222222222222223,0,0,0.022222222222222223,144.44444444444446,0)" xlink:href="#ba"/><use transform="matrix(0.022222222222222223,0,0,0.022222222222222223,155.55555555555557,0)" xlink:href="#aF"/><use transform="matrix(0.022222222222222223,0,0,0.022222222222222223,166.66666666666669,0)" xlink:href="#ay"/><use transform="matrix(0.022222222222222223,0,0,0.022222222222222223,177.7777777777778,0)" xlink:href="#au"/><use transform="matrix(0.022222222222222223,0,0,0.022222222222222223,188.88888888888889,0)" xlink:href="#az"/><use transform="matrix(0.022222222222222223,0,0,0.022222222222222223,200.00000000000006,0)" xlink:href="#aF"/><use transform="matrix(0.022222222222222223,0,0,0.022222222222222223,211.11111111111117,0)" xlink:href="#aP"/><use transform="matrix(0.022222222222222223,0,0,0.022222222222222223,222.22222222222226,0)" xlink:href="#aC"/><use transform="matrix(0.022222222222222223,0,0,0.022222222222222223,233.33333333333337,0)" xlink:href="#au"/><use transform="matrix(0.022222222222222223,0,0,0.022222222222222223,244.44444444444449,0)" xlink:href="#aA"/><use transform="matrix(0.022222222222222223,0,0,0.022222222222222223,255.5555555555556,0)" xlink:href="#aV"/><use transform="matrix(0.022222222222222223,0,0,0.022222222222222223,266.6666666666667,0)" xlink:href="#aW"/><use transform="matrix(0.022222222222222223,0,0,0.022222222222222223,277.77777777777777,0)" xlink:href="#aX"/><use transform="matrix(0.022222222222222223,0,0,0.022222222222222223,288.88888888888886,0)" xlink:href="#aH"/><use transform="matrix(0.022222222222222223,0,0,0.022222222222222223,299.99999999999994,0)" xlink:href="#aH"/></g><g id="X"><use transform="matrix(0.022222222222222223,0,0,0.022222222222222223,0,0)" xlink:href="#at"/><use transform="matrix(0.022222222222222223,0,0,0.022222222222222223,11.11111111111111,0)" xlink:href="#au"/><use transform="matrix(0.022222222222222223,0,0,0.022222222222222223,22.22222222222222,0)" xlink:href="#az"/><use transform="matrix(0.022222222222222223,0,0,0.022222222222222223,33.33333333333333,0)" xlink:href="#aP"/><use transform="matrix(0.022222222222222223,0,0,0.022222222222222223,44.44444444444444,0)" xlink:href="#aC"/><use transform="matrix(0.022222222222222223,0,0,0.022222222222222223,55.55555555555556,0)" xlink:href="#au"/><use transform="matrix(0.022222222222222223,0,0,0.022222222222222223,66.66666666666667,0)" xlink:href="#aA"/><use transform="matrix(0.022222222222222223,0,0,0.022222222222222223,77.77777777777779,0)" xlink:href="#aJ"/><use transform="matrix(0.022222222222222223,0,0,0.022222222222222223,88.8888888888889,0)" xlink:href="#aq"/><use transform="matrix(0.022222222222222223,0,0,0.022222222222222223,100.00000000000003,0)" xlink:href="#ar"/><use transform="matrix(0.022222222222222223,0,0,0.022222222222222223,111.11111111111113,0)" xlink:href="#as"/><use transform="matrix(0.022222222222222223,0,0,0.022222222222222223,122.22222222222224,0)" xlink:href="#at"/></g><path fill="#3a414a" d="M276-405c-78 10-133 62-133 142V0H70v-665h83c3 11-10 14-10 24v265c34-51 90-92 152-92 88 0 138 91 138 191V0h-71v-275c9-55-26-138-86-130" id="bc"/><path fill="#3a414a" d="M456-448c0 100-85 173-202 173H131V0H59v-623h190c118-13 207 74 207 175zm-72 4c0-65-58-113-135-113H131l-1 220h126c73 8 128-44 128-107" id="bd"/><g id="Y"><use transform="matrix(0.022222222222222223,0,0,0.022222222222222223,0,0)" xlink:href="#aN"/><use transform="matrix(0.022222222222222223,0,0,0.022222222222222223,11.11111111111111,0)" xlink:href="#bc"/><use transform="matrix(0.022222222222222223,0,0,0.022222222222222223,22.22222222222222,0)" xlink:href="#aw"/><use transform="matrix(0.022222222222222223,0,0,0.022222222222222223,33.33333333333333,0)" xlink:href="#as"/><use transform="matrix(0.022222222222222223,0,0,0.022222222222222223,44.44444444444444,0)" xlink:href="#at"/><use transform="matrix(0.022222222222222223,0,0,0.022222222222222223,55.55555555555556,0)" xlink:href="#au"/><use transform="matrix(0.022222222222222223,0,0,0.022222222222222223,66.66666666666667,0)" xlink:href="#aP"/><use transform="matrix(0.022222222222222223,0,0,0.022222222222222223,77.77777777777779,0)" xlink:href="#aC"/><use transform="matrix(0.022222222222222223,0,0,0.022222222222222223,88.8888888888889,0)" xlink:href="#au"/><use transform="matrix(0.022222222222222223,0,0,0.022222222222222223,100.00000000000003,0)" xlink:href="#aA"/><use transform="matrix(0.022222222222222223,0,0,0.022222222222222223,111.11111111111113,0)" xlink:href="#bd"/><use transform="matrix(0.022222222222222223,0,0,0.022222222222222223,122.22222222222224,0)" xlink:href="#aw"/><use transform="matrix(0.022222222222222223,0,0,0.022222222222222223,133.33333333333334,0)" xlink:href="#aC"/><use transform="matrix(0.022222222222222223,0,0,0.022222222222222223,144.44444444444446,0)" xlink:href="#aC"/><use transform="matrix(0.022222222222222223,0,0,0.022222222222222223,155.55555555555557,0)" xlink:href="#aD"/><use transform="matrix(0.022222222222222223,0,0,0.022222222222222223,166.66666666666669,0)" xlink:href="#ar"/><use transform="matrix(0.022222222222222223,0,0,0.022222222222222223,177.7777777777778,0)" xlink:href="#aA"/><use transform="matrix(0.022222222222222223,0,0,0.022222222222222223,188.88888888888889,0)" xlink:href="#ao"/><use transform="matrix(0.022222222222222223,0,0,0.022222222222222223,200.00000000000006,0)" xlink:href="#aJ"/><use transform="matrix(0.022222222222222223,0,0,0.022222222222222223,211.11111111111117,0)" xlink:href="#aq"/><use transform="matrix(0.022222222222222223,0,0,0.022222222222222223,222.22222222222226,0)" xlink:href="#ar"/><use transform="matrix(0.022222222222222223,0,0,0.022222222222222223,233.33333333333337,0)" xlink:href="#as"/><use transform="matrix(0.022222222222222223,0,0,0.022222222222222223,244.44444444444449,0)" xlink:href="#at"/></g><path fill="#3a414a" d="M230 34c-6-47-51-27-51-80 0-30 24-57 57-57 36 0 70 32 70 83 0 52-37 117-107 188l-34-30c36-40 54-52 65-104" id="be"/><g id="Z"><use transform="matrix(0.022222222222222223,0,0,0.022222222222222223,0,0)" xlink:href="#an"/><use transform="matrix(0.022222222222222223,0,0,0.022222222222222223,11.11111111111111,0)" xlink:href="#ao"/><use transform="matrix(0.022222222222222223,0,0,0.022222222222222223,22.22222222222222,0)" xlink:href="#be"/></g><g id="aa"><use transform="matrix(0.022222222222222223,0,0,0.022222222222222223,0,0)" xlink:href="#aP"/><use transform="matrix(0.022222222222222223,0,0,0.022222222222222223,11.11111111111111,0)" xlink:href="#aC"/><use transform="matrix(0.022222222222222223,0,0,0.022222222222222223,22.22222222222222,0)" xlink:href="#au"/><use transform="matrix(0.022222222222222223,0,0,0.022222222222222223,33.33333333333333,0)" xlink:href="#aA"/><use transform="matrix(0.022222222222222223,0,0,0.022222222222222223,44.44444444444444,0)" xlink:href="#aV"/><use transform="matrix(0.022222222222222223,0,0,0.022222222222222223,55.55555555555556,0)" xlink:href="#aW"/><use transform="matrix(0.022222222222222223,0,0,0.022222222222222223,66.66666666666667,0)" xlink:href="#aX"/></g><g id="ab"><use transform="matrix(0.022222222222222223,0,0,0.022222222222222223,0,0)" xlink:href="#aO"/><use transform="matrix(0.022222222222222223,0,0,0.022222222222222223,11.11111111111111,0)" xlink:href="#aC"/><use transform="matrix(0.022222222222222223,0,0,0.022222222222222223,22.22222222222222,0)" xlink:href="#au"/><use transform="matrix(0.022222222222222223,0,0,0.022222222222222223,33.33333333333333,0)" xlink:href="#aA"/><use transform="matrix(0.022222222222222223,0,0,0.022222222222222223,44.44444444444444,0)" xlink:href="#aV"/><use transform="matrix(0.022222222222222223,0,0,0.022222222222222223,55.55555555555556,0)" xlink:href="#aW"/><use transform="matrix(0.022222222222222223,0,0,0.022222222222222223,66.66666666666667,0)" xlink:href="#aX"/><use transform="matrix(0.022222222222222223,0,0,0.022222222222222223,77.77777777777779,0)" xlink:href="#aK"/><use transform="matrix(0.022222222222222223,0,0,0.022222222222222223,88.8888888888889,0)" xlink:href="#ap"/><use transform="matrix(0.022222222222222223,0,0,0.022222222222222223,100.00000000000003,0)" xlink:href="#aY"/><use transform="matrix(0.022222222222222223,0,0,0.022222222222222223,111.11111111111113,0)" xlink:href="#au"/><use transform="matrix(0.022222222222222223,0,0,0.022222222222222223,122.22222222222224,0)" xlink:href="#aC"/><use transform="matrix(0.022222222222222223,0,0,0.022222222222222223,133.33333333333334,0)" xlink:href="#aB"/><use transform="matrix(0.022222222222222223,0,0,0.022222222222222223,144.44444444444446,0)" xlink:href="#ar"/><use transform="matrix(0.022222222222222223,0,0,0.022222222222222223,155.55555555555557,0)" xlink:href="#as"/><use transform="matrix(0.022222222222222223,0,0,0.022222222222222223,166.66666666666669,0)" xlink:href="#aC"/><use transform="matrix(0.022222222222222223,0,0,0.022222222222222223,177.7777777777778,0)" xlink:href="#au"/><use transform="matrix(0.022222222222222223,0,0,0.022222222222222223,188.88888888888889,0)" xlink:href="#aZ"/><use transform="matrix(0.022222222222222223,0,0,0.022222222222222223,200.00000000000006,0)" xlink:href="#as"/><use transform="matrix(0.022222222222222223,0,0,0.022222222222222223,211.11111111111117,0)" xlink:href="#az"/><use transform="matrix(0.022222222222222223,0,0,0.022222222222222223,222.22222222222226,0)" xlink:href="#an"/><use transform="matrix(0.022222222222222223,0,0,0.022222222222222223,233.33333333333337,0)" xlink:href="#az"/><use transform="matrix(0.022222222222222223,0,0,0.022222222222222223,244.44444444444449,0)" xlink:href="#ba"/><use transform="matrix(0.022222222222222223,0,0,0.022222222222222223,255.5555555555556,0)" xlink:href="#aF"/><use transform="matrix(0.022222222222222223,0,0,0.022222222222222223,266.6666666666667,0)" xlink:href="#aG"/><use transform="matrix(0.022222222222222223,0,0,0.022222222222222223,277.77777777777777,0)" xlink:href="#ao"/><use transform="matrix(0.022222222222222223,0,0,0.022222222222222223,288.88888888888886,0)" xlink:href="#aV"/><use transform="matrix(0.022222222222222223,0,0,0.022222222222222223,299.99999999999994,0)" xlink:href="#aW"/><use transform="matrix(0.022222222222222223,0,0,0.022222222222222223,311.11111111111103,0)" xlink:href="#aX"/><use transform="matrix(0.022222222222222223,0,0,0.022222222222222223,322.2222222222221,0)" xlink:href="#aH"/></g><path fill="#3a414a" d="M144-665c2 12-11 11-11 22v256c29-50 83-81 141-81 90 0 183 74 183 234 0 166-97 245-191 245-55 0-105-26-135-71L106 0H60v-665h84zm105 259c-79 0-116 64-116 163 0 40 0 66 3 90 12 87 80 100 111 100 45 0 136-26 136-166 0-161-91-187-134-187" id="bf"/><g id="ac"><use transform="matrix(0.022222222222222223,0,0,0.022222222222222223,0,0)" xlink:href="#aB"/><use transform="matrix(0.022222222222222223,0,0,0.022222222222222223,11.11111111111111,0)" xlink:href="#aO"/><use transform="matrix(0.022222222222222223,0,0,0.022222222222222223,22.22222222222222,0)" xlink:href="#bf"/><use transform="matrix(0.022222222222222223,0,0,0.022222222222222223,33.33333333333333,0)" xlink:href="#ax"/><use transform="matrix(0.022222222222222223,0,0,0.022222222222222223,44.44444444444444,0)" xlink:href="#an"/><use transform="matrix(0.022222222222222223,0,0,0.022222222222222223,55.55555555555556,0)" xlink:href="#aC"/><use transform="matrix(0.022222222222222223,0,0,0.022222222222222223,66.66666666666667,0)" xlink:href="#bc"/><use transform="matrix(0.022222222222222223,0,0,0.022222222222222223,77.77777777777779,0)" xlink:href="#aG"/><use transform="matrix(0.022222222222222223,0,0,0.022222222222222223,88.8888888888889,0)" xlink:href="#ao"/><use transform="matrix(0.022222222222222223,0,0,0.022222222222222223,100.00000000000003,0)" xlink:href="#aJ"/><use transform="matrix(0.022222222222222223,0,0,0.022222222222222223,111.11111111111113,0)" xlink:href="#aq"/><use transform="matrix(0.022222222222222223,0,0,0.022222222222222223,122.22222222222224,0)" xlink:href="#ar"/><use transform="matrix(0.022222222222222223,0,0,0.022222222222222223,133.33333333333334,0)" xlink:href="#as"/><use transform="matrix(0.022222222222222223,0,0,0.022222222222222223,144.44444444444446,0)" xlink:href="#at"/></g><path fill="#3a414a" d="M88-623h309v59H274v507h129V1H81v-59h123v-506H88v-59" id="bg"/><g id="ad"><use transform="matrix(0.022222222222222223,0,0,0.022222222222222223,0,0)" xlink:href="#aO"/><use transform="matrix(0.022222222222222223,0,0,0.022222222222222223,11.11111111111111,0)" xlink:href="#aC"/><use transform="matrix(0.022222222222222223,0,0,0.022222222222222223,22.22222222222222,0)" xlink:href="#au"/><use transform="matrix(0.022222222222222223,0,0,0.022222222222222223,33.33333333333333,0)" xlink:href="#aA"/><use transform="matrix(0.022222222222222223,0,0,0.022222222222222223,44.44444444444444,0)" xlink:href="#bg"/><use transform="matrix(0.022222222222222223,0,0,0.022222222222222223,55.55555555555556,0)" xlink:href="#ao"/><use transform="matrix(0.022222222222222223,0,0,0.022222222222222223,66.66666666666667,0)" xlink:href="#be"/></g><g id="ae"><use transform="matrix(0.022222222222222223,0,0,0.022222222222222223,0,0)" xlink:href="#aq"/><use transform="matrix(0.022222222222222223,0,0,0.022222222222222223,11.11111111111111,0)" xlink:href="#ar"/><use transform="matrix(0.022222222222222223,0,0,0.022222222222222223,22.22222222222222,0)" xlink:href="#as"/><use transform="matrix(0.022222222222222223,0,0,0.022222222222222223,33.33333333333333,0)" xlink:href="#at"/></g><g id="af"><use transform="matrix(0.022222222222222223,0,0,0.022222222222222223,0,0)" xlink:href="#aw"/><use transform="matrix(0.022222222222222223,0,0,0.022222222222222223,11.11111111111111,0)" xlink:href="#ao"/><use transform="matrix(0.022222222222222223,0,0,0.022222222222222223,22.22222222222222,0)" xlink:href="#bg"/><use transform="matrix(0.022222222222222223,0,0,0.022222222222222223,33.33333333333333,0)" xlink:href="#ao"/><use transform="matrix(0.022222222222222223,0,0,0.022222222222222223,44.44444444444444,0)" xlink:href="#aK"/><use transform="matrix(0.022222222222222223,0,0,0.022222222222222223,55.55555555555556,0)" xlink:href="#ap"/></g><g id="ag"><use transform="matrix(0.022222222222222223,0,0,0.022222222222222223,0,0)" xlink:href="#aO"/><use transform="matrix(0.022222222222222223,0,0,0.022222222222222223,11.11111111111111,0)" xlink:href="#as"/><use transform="matrix(0.022222222222222223,0,0,0.022222222222222223,22.22222222222222,0)" xlink:href="#aB"/><use transform="matrix(0.022222222222222223,0,0,0.022222222222222223,33.33333333333333,0)" xlink:href="#aO"/><use transform="matrix(0.022222222222222223,0,0,0.022222222222222223,44.44444444444444,0)" xlink:href="#bf"/><use transform="matrix(0.022222222222222223,0,0,0.022222222222222223,55.55555555555556,0)" xlink:href="#ax"/><use transform="matrix(0.022222222222222223,0,0,0.022222222222222223,66.66666666666667,0)" xlink:href="#an"/><use transform="matrix(0.022222222222222223,0,0,0.022222222222222223,77.77777777777779,0)" xlink:href="#aC"/><use transform="matrix(0.022222222222222223,0,0,0.022222222222222223,88.8888888888889,0)" xlink:href="#bc"/><use transform="matrix(0.022222222222222223,0,0,0.022222222222222223,100.00000000000003,0)" xlink:href="#aG"/><use transform="matrix(0.022222222222222223,0,0,0.022222222222222223,111.11111111111113,0)" xlink:href="#ao"/><use transform="matrix(0.022222222222222223,0,0,0.022222222222222223,122.22222222222224,0)" xlink:href="#aJ"/><use transform="matrix(0.022222222222222223,0,0,0.022222222222222223,133.33333333333334,0)" xlink:href="#aq"/><use transform="matrix(0.022222222222222223,0,0,0.022222222222222223,144.44444444444446,0)" xlink:href="#ar"/><use transform="matrix(0.022222222222222223,0,0,0.022222222222222223,155.55555555555557,0)" xlink:href="#as"/><use transform="matrix(0.022222222222222223,0,0,0.022222222222222223,166.66666666666669,0)" xlink:href="#at"/></g><g id="ah"><use transform="matrix(0.022222222222222223,0,0,0.022222222222222223,0,0)" xlink:href="#aY"/><use transform="matrix(0.022222222222222223,0,0,0.022222222222222223,11.11111111111111,0)" xlink:href="#au"/><use transform="matrix(0.022222222222222223,0,0,0.022222222222222223,22.22222222222222,0)" xlink:href="#aC"/><use transform="matrix(0.022222222222222223,0,0,0.022222222222222223,33.33333333333333,0)" xlink:href="#aB"/><use transform="matrix(0.022222222222222223,0,0,0.022222222222222223,44.44444444444444,0)" xlink:href="#ar"/><use transform="matrix(0.022222222222222223,0,0,0.022222222222222223,55.55555555555556,0)" xlink:href="#as"/><use transform="matrix(0.022222222222222223,0,0,0.022222222222222223,66.66666666666667,0)" xlink:href="#aC"/><use transform="matrix(0.022222222222222223,0,0,0.022222222222222223,77.77777777777779,0)" xlink:href="#au"/><use transform="matrix(0.022222222222222223,0,0,0.022222222222222223,88.8888888888889,0)" xlink:href="#aZ"/><use transform="matrix(0.022222222222222223,0,0,0.022222222222222223,100.00000000000003,0)" xlink:href="#as"/><use transform="matrix(0.022222222222222223,0,0,0.022222222222222223,111.11111111111113,0)" xlink:href="#az"/><use transform="matrix(0.022222222222222223,0,0,0.022222222222222223,122.22222222222224,0)" xlink:href="#an"/><use transform="matrix(0.022222222222222223,0,0,0.022222222222222223,133.33333333333334,0)" xlink:href="#az"/><use transform="matrix(0.022222222222222223,0,0,0.022222222222222223,144.44444444444446,0)" xlink:href="#ba"/><use transform="matrix(0.022222222222222223,0,0,0.022222222222222223,155.55555555555557,0)" xlink:href="#aF"/><use transform="matrix(0.022222222222222223,0,0,0.022222222222222223,166.66666666666669,0)" xlink:href="#aP"/><use transform="matrix(0.022222222222222223,0,0,0.022222222222222223,177.7777777777778,0)" xlink:href="#aC"/><use transform="matrix(0.022222222222222223,0,0,0.022222222222222223,188.88888888888889,0)" xlink:href="#au"/><use transform="matrix(0.022222222222222223,0,0,0.022222222222222223,200.00000000000006,0)" xlink:href="#aA"/><use transform="matrix(0.022222222222222223,0,0,0.022222222222222223,211.11111111111117,0)" xlink:href="#aV"/><use transform="matrix(0.022222222222222223,0,0,0.022222222222222223,222.22222222222226,0)" xlink:href="#aW"/><use transform="matrix(0.022222222222222223,0,0,0.022222222222222223,233.33333333333337,0)" xlink:href="#aX"/><use transform="matrix(0.022222222222222223,0,0,0.022222222222222223,244.44444444444449,0)" xlink:href="#aH"/></g></defs></g></svg>