<svg xmlns="http://www.w3.org/2000/svg" xmlns:xlink="http://www.w3.org/1999/xlink" xmlns:lucid="lucid" width="1361" height="907"><g transform="translate(40.5 -139.5)" lucid:page-tab-id="0_0"><path d="M-500 0h2000v1500H-500z" fill="#fff"/><path d="M-20 506a6 6 0 0 1 6-6h288a6 6 0 0 1 6 6v226a6 6 0 0 1-6 6H-14a6 6 0 0 1-6-6z" stroke="#3a414a" fill="#fff"/><path d="M-20 541.87h300m-300 110.4h300" stroke="#3a414a" fill="none"/><use xlink:href="#a" transform="matrix(1,0,0,1,-12,508) translate(116.67447916666667 20.69314236111111)"/><use xlink:href="#b" transform="matrix(1,0,0,1,-8,549.8680555555555) translate(0 29.388888888888893)"/><use xlink:href="#c" transform="matrix(1,0,0,1,-8,549.8680555555555) translate(22.22222222222222 29.388888888888893)"/><use xlink:href="#d" transform="matrix(1,0,0,1,-8,549.8680555555555) translate(66.66666666666666 29.388888888888893)"/><use xlink:href="#b" transform="matrix(1,0,0,1,-8,549.8680555555555) translate(0 53.611111111111114)"/><use xlink:href="#e" transform="matrix(1,0,0,1,-8,549.8680555555555) translate(22.22222222222222 53.611111111111114)"/><use xlink:href="#f" transform="matrix(1,0,0,1,-8,549.8680555555555) translate(144.44444444444446 53.611111111111114)"/><use xlink:href="#b" transform="matrix(1,0,0,1,-8,549.8680555555555) translate(0 77.83333333333334)"/><use xlink:href="#g" transform="matrix(1,0,0,1,-8,549.8680555555555) translate(22.22222222222222 77.83333333333334)"/><use xlink:href="#h" transform="matrix(1,0,0,1,-8,549.8680555555555) translate(177.7777777777778 77.83333333333334)"/><use xlink:href="#i" transform="matrix(1,0,0,1,-8,660.2847222222222) translate(0 29.5)"/><use xlink:href="#j" transform="matrix(1,0,0,1,-8,660.2847222222222) translate(22.22222222222222 29.5)"/><use xlink:href="#k" transform="matrix(1,0,0,1,-8,660.2847222222222) translate(200.00000000000003 29.5)"/><use xlink:href="#l" transform="matrix(1,0,0,1,-8,660.2847222222222) translate(0 53.72222222222222)"/><path d="M880 166a6 6 0 0 1 6-6h368a6 6 0 0 1 6 6v226a6 6 0 0 1-6 6H886a6 6 0 0 1-6-6z" stroke="#3a414a" fill="#fff"/><path d="M880 201.87h380M880 312.04h380" stroke="#3a414a" fill="none"/><use xlink:href="#m" transform="matrix(1,0,0,1,888,168) translate(142.24848090277777 20.69314236111111)"/><use xlink:href="#b" transform="matrix(1,0,0,1,892,209.86805555555554) translate(0 29.388888888888893)"/><use xlink:href="#c" transform="matrix(1,0,0,1,892,209.86805555555554) translate(22.22222222222222 29.388888888888893)"/><use xlink:href="#d" transform="matrix(1,0,0,1,892,209.86805555555554) translate(66.66666666666666 29.388888888888893)"/><use xlink:href="#b" transform="matrix(1,0,0,1,892,209.86805555555554) translate(0 53.611111111111114)"/><use xlink:href="#n" transform="matrix(1,0,0,1,892,209.86805555555554) translate(22.22222222222222 53.611111111111114)"/><use xlink:href="#f" transform="matrix(1,0,0,1,892,209.86805555555554) translate(88.88888888888889 53.611111111111114)"/><use xlink:href="#b" transform="matrix(1,0,0,1,892,209.86805555555554) translate(0 77.83333333333334)"/><use xlink:href="#o" transform="matrix(1,0,0,1,892,209.86805555555554) translate(22.22222222222222 77.83333333333334)"/><use xlink:href="#h" transform="matrix(1,0,0,1,892,209.86805555555554) translate(166.66666666666669 77.83333333333334)"/><g><use xlink:href="#i" transform="matrix(1,0,0,1,892,320.0347222222222) translate(0 29)"/><use xlink:href="#p" transform="matrix(1,0,0,1,892,320.0347222222222) translate(22.22222222222222 29)"/><use xlink:href="#k" transform="matrix(1,0,0,1,892,320.0347222222222) translate(133.33333333333334 29)"/><use xlink:href="#i" transform="matrix(1,0,0,1,892,320.0347222222222) translate(0 53.22222222222222)"/><use xlink:href="#q" transform="matrix(1,0,0,1,892,320.0347222222222) translate(22.22222222222222 53.22222222222222)"/><use xlink:href="#r" transform="matrix(1,0,0,1,892,320.0347222222222) translate(155.55555555555557 53.22222222222222)"/></g><path d="M880 486a6 6 0 0 1 6-6h368a6 6 0 0 1 6 6v237a6 6 0 0 1-6 6H886a6 6 0 0 1-6-6z" stroke="#3a414a" fill="#fff"/><path d="M880 521.87h380M880 637.53h380" stroke="#3a414a" fill="none"/><g><use xlink:href="#s" transform="matrix(1,0,0,1,888,488) translate(126.47699652777777 20.69314236111111)"/></g><g><use xlink:href="#b" transform="matrix(1,0,0,1,892,529.8680555555555) translate(0 31.888888888888893)"/><use xlink:href="#c" transform="matrix(1,0,0,1,892,529.8680555555555) translate(22.22222222222222 31.888888888888893)"/><use xlink:href="#d" transform="matrix(1,0,0,1,892,529.8680555555555) translate(66.66666666666666 31.888888888888893)"/><use xlink:href="#b" transform="matrix(1,0,0,1,892,529.8680555555555) translate(0 56.111111111111114)"/><use xlink:href="#n" transform="matrix(1,0,0,1,892,529.8680555555555) translate(22.22222222222222 56.111111111111114)"/><use xlink:href="#f" transform="matrix(1,0,0,1,892,529.8680555555555) translate(88.88888888888889 56.111111111111114)"/><use xlink:href="#b" transform="matrix(1,0,0,1,892,529.8680555555555) translate(0 80.33333333333334)"/><use xlink:href="#o" transform="matrix(1,0,0,1,892,529.8680555555555) translate(22.22222222222222 80.33333333333334)"/><use xlink:href="#h" transform="matrix(1,0,0,1,892,529.8680555555555) translate(166.66666666666669 80.33333333333334)"/></g><g><use xlink:href="#i" transform="matrix(1,0,0,1,892,645.5347222222222) translate(0 32)"/><use xlink:href="#p" transform="matrix(1,0,0,1,892,645.5347222222222) translate(22.22222222222222 32)"/><use xlink:href="#k" transform="matrix(1,0,0,1,892,645.5347222222222) translate(133.33333333333334 32)"/><use xlink:href="#i" transform="matrix(1,0,0,1,892,645.5347222222222) translate(0 56.22222222222222)"/><use xlink:href="#q" transform="matrix(1,0,0,1,892,645.5347222222222) translate(22.22222222222222 56.22222222222222)"/><use xlink:href="#r" transform="matrix(1,0,0,1,892,645.5347222222222) translate(155.55555555555557 56.22222222222222)"/></g><path d="M880 794a6 6 0 0 1 6-6h408a6 6 0 0 1 6 6v226a6 6 0 0 1-6 6H886a6 6 0 0 1-6-6z" stroke="#3a414a" fill="#fff"/><path d="M880 829.87h420m-420 134.4h420" stroke="#3a414a" fill="none"/><g><use xlink:href="#t" transform="matrix(1,0,0,1,888,796) translate(151.81011284722223 20.69314236111111)"/></g><g><use xlink:href="#b" transform="matrix(1,0,0,1,892,837.8680555555555) translate(0 29.27777777777778)"/><use xlink:href="#c" transform="matrix(1,0,0,1,892,837.8680555555555) translate(22.22222222222222 29.27777777777778)"/><use xlink:href="#d" transform="matrix(1,0,0,1,892,837.8680555555555) translate(66.66666666666666 29.27777777777778)"/><use xlink:href="#b" transform="matrix(1,0,0,1,892,837.8680555555555) translate(0 53.5)"/><use xlink:href="#n" transform="matrix(1,0,0,1,892,837.8680555555555) translate(22.22222222222222 53.5)"/><use xlink:href="#f" transform="matrix(1,0,0,1,892,837.8680555555555) translate(88.88888888888889 53.5)"/><use xlink:href="#b" transform="matrix(1,0,0,1,892,837.8680555555555) translate(0 77.72222222222223)"/><use xlink:href="#u" transform="matrix(1,0,0,1,892,837.8680555555555) translate(22.22222222222222 77.72222222222223)"/><use xlink:href="#v" transform="matrix(1,0,0,1,892,837.8680555555555) translate(188.8888888888889 77.72222222222223)"/><use xlink:href="#b" transform="matrix(1,0,0,1,892,837.8680555555555) translate(0 101.94444444444443)"/><use xlink:href="#w" transform="matrix(1,0,0,1,892,837.8680555555555) translate(22.22222222222222 101.94444444444443)"/><use xlink:href="#x" transform="matrix(1,0,0,1,892,837.8680555555555) translate(222.22222222222226 101.94444444444443)"/></g><path d="M400 506a6 6 0 0 1 6-6h388a6 6 0 0 1 6 6v276a6 6 0 0 1-6 6H406a6 6 0 0 1-6-6z" stroke="#3a414a" fill="#fff"/><path d="M400 541.87h400m-400 171.6h400" stroke="#3a414a" fill="none"/><g><use xlink:href="#y" transform="matrix(1,0,0,1,408,508) translate(128.1545138888889 20.69314236111111)"/></g><g><use xlink:href="#b" transform="matrix(1,0,0,1,412,549.8680555555555) translate(0 35.666666666666664)"/><use xlink:href="#z" transform="matrix(1,0,0,1,412,549.8680555555555) translate(22.22222222222222 35.666666666666664)"/><use xlink:href="#f" transform="matrix(1,0,0,1,412,549.8680555555555) translate(144.44444444444446 35.666666666666664)"/><use xlink:href="#b" transform="matrix(1,0,0,1,412,549.8680555555555) translate(0 59.888888888888886)"/><use xlink:href="#A" transform="matrix(1,0,0,1,412,549.8680555555555) translate(22.22222222222222 59.888888888888886)"/><use xlink:href="#f" transform="matrix(1,0,0,1,412,549.8680555555555) translate(133.33333333333334 59.888888888888886)"/><use xlink:href="#b" transform="matrix(1,0,0,1,412,549.8680555555555) translate(0 84.11111111111111)"/><use xlink:href="#B" transform="matrix(1,0,0,1,412,549.8680555555555) translate(22.22222222222222 84.11111111111111)"/><use xlink:href="#v" transform="matrix(1,0,0,1,412,549.8680555555555) translate(177.7777777777778 84.11111111111111)"/><use xlink:href="#b" transform="matrix(1,0,0,1,412,549.8680555555555) translate(0 108.33333333333331)"/><use xlink:href="#C" transform="matrix(1,0,0,1,412,549.8680555555555) translate(22.22222222222222 108.33333333333331)"/><use xlink:href="#D" transform="matrix(1,0,0,1,412,549.8680555555555) translate(211.11111111111114 108.33333333333331)"/><use xlink:href="#b" transform="matrix(1,0,0,1,412,549.8680555555555) translate(0 132.55555555555554)"/><use xlink:href="#E" transform="matrix(1,0,0,1,412,549.8680555555555) translate(22.22222222222222 132.55555555555554)"/><use xlink:href="#F" transform="matrix(1,0,0,1,412,549.8680555555555) translate(177.7777777777778 132.55555555555554)"/></g><defs><path fill="#3a414a" d="M750 29c-381 0-572-206-572-590v-932h203v907c3 300 86 451 369 451 282 0 368-151 368-451v-907h203v932c1 384-191 590-571 590" id="G"/><path fill="#3a414a" d="M549-1147c138 1 258 21 358 60v174c-95-49-202-80-336-80-155 0-274 34-274 168 0 43 18 75 49 101 32 28 167 64 260 83 131 27 223 68 278 119s83 122 83 213C967-78 759 33 504 29 357 27 235-1 111-41v-190c117 60 239 104 397 106 147 2 270-43 270-170 0-50-19-86-50-115s-183-69-286-92c-197-44-323-106-323-315 0-230 181-332 430-330" id="H"/><path fill="#3a414a" d="M662-1147c308 0 494 224 489 541v90H305c14 244 148 389 400 389 164 0 286-43 403-104v174C988-6 854 27 694 29c-352 4-581-227-581-578s207-598 549-598zm305 487c1-190-117-331-303-331-212 0-338 131-353 332" id="I"/><path fill="#3a414a" d="M371-946c77-148 245-227 470-191l1 189c-40-23-87-35-148-35-222 1-323 158-323 393V0H186v-1120h185v174" id="J"/><g id="a"><use transform="matrix(0.010850694444444444,0,0,0.010850694444444444,0,0)" xlink:href="#G"/><use transform="matrix(0.010850694444444444,0,0,0.010850694444444444,16.26519097222222,0)" xlink:href="#H"/><use transform="matrix(0.010850694444444444,0,0,0.010850694444444444,27.842881944444443,0)" xlink:href="#I"/><use transform="matrix(0.010850694444444444,0,0,0.010850694444444444,41.51475694444444,0)" xlink:href="#J"/></g><path fill="#3a414a" d="M71-348h360v67H71v-67" id="K"/><use transform="matrix(0.022222222222222223,0,0,0.022222222222222223,0,0)" xlink:href="#K" id="b"/><path fill="#3a414a" d="M106-457h183v399h107V0H100v-58h117v-341H106v-58zm149-199c29 0 51 23 51 51s-22 52-51 52-52-24-52-52 23-51 52-51" id="L"/><path fill="#3a414a" d="M371-390v-275h77c0 12-10 17-10 28l1 595c0 14 1 28 5 42h-72c-7-22-3-46-4-73-29 51-83 83-141 83-88 0-182-73-182-242 0-175 105-237 192-237 63 0 112 32 134 79zM243-53c73 0 122-71 122-170 0-51-1-77-7-98-18-68-78-89-118-89-53 0-125 36-125 166 0 150 76 191 128 191" id="M"/><path fill="#3a414a" d="M298-365c0 31-26 57-59 57s-60-25-60-57c0-31 27-58 60-58s59 27 59 58zm0 319c0 31-26 57-59 57s-60-25-60-57c0-31 27-58 60-58s59 27 59 58" id="N"/><g id="c"><use transform="matrix(0.022222222222222223,0,0,0.022222222222222223,0,0)" xlink:href="#L"/><use transform="matrix(0.022222222222222223,0,0,0.022222222222222223,11.11111111111111,0)" xlink:href="#M"/><use transform="matrix(0.022222222222222223,0,0,0.022222222222222223,22.22222222222222,0)" xlink:href="#N"/></g><path fill="#3a414a" d="M88-623h309v59H274v507h129V1H81v-59h123v-506H88v-59" id="O"/><path fill="#3a414a" d="M274-405c-78 10-132 62-132 142V0H68v-457h74v81c34-51 89-92 151-92 88 0 139 91 139 191V0h-71v-275c9-55-27-138-87-130" id="P"/><path fill="#3a414a" d="M298 9c-94 0-131-85-131-173 0-78 4-156 10-234H70l1-59h109l8-122 79-13c4 10-4 16-6 27-5 25-12 108-12 108h150v59H249c-9 66-12 213-6 267 6 55 43 73 77 73 28 0 63-12 102-41l22 57C405-14 352 9 298 9" id="Q"/><path fill="#3a414a" d="M259-468c75 0 160 39 181 162 4 27 6 57 3 88H118c5 137 95 170 156 170 45 0 88-18 118-51l40 39c-39 47-99 70-164 70C144 10 49-71 49-223c0-167 101-245 210-245zM121-274h251c9-74-44-139-118-139-49 0-119 31-133 139" id="R"/><path fill="#3a414a" d="M126-314c0 55 45 100 101 100s100-45 100-100-44-101-100-101-101 46-101 101zm11 199c9 36 35 35 92 35 52 0 107-6 155 13 49 20 71 59 71 99 0 61-55 140-210 140C85 172 38 114 38 64c0-36 26-70 75-101-29-15-37-42-37-61 0-29 19-60 52-88-42-27-68-74-68-124 0-133 184-217 279-118 35-30 81-45 127-41l9 59c-41-6-74 2-106 20 77 121-53 276-200 223-4 4-32 28-32 52zm107 233c53 0 145-29 145-81 0-20-11-48-54-53s-135-1-174-8c-52 25-92 93-12 127 35 14 74 15 95 15" id="S"/><path fill="#3a414a" d="M425-349c-21-29-38-57-93-57-32 0-86 11-128 77-31 49-32 79-32 107V1H99v-458h75l-2 88c45-108 209-131 286-49" id="T"/><g id="d"><use transform="matrix(0.022222222222222223,0,0,0.022222222222222223,0,0)" xlink:href="#O"/><use transform="matrix(0.022222222222222223,0,0,0.022222222222222223,11.11111111111111,0)" xlink:href="#P"/><use transform="matrix(0.022222222222222223,0,0,0.022222222222222223,22.22222222222222,0)" xlink:href="#Q"/><use transform="matrix(0.022222222222222223,0,0,0.022222222222222223,33.33333333333333,0)" xlink:href="#R"/><use transform="matrix(0.022222222222222223,0,0,0.022222222222222223,44.44444444444444,0)" xlink:href="#S"/><use transform="matrix(0.022222222222222223,0,0,0.022222222222222223,55.55555555555556,0)" xlink:href="#R"/><use transform="matrix(0.022222222222222223,0,0,0.022222222222222223,66.66666666666667,0)" xlink:href="#T"/></g><path fill="#3a414a" d="M222 11C125 11 62-87 62-202l1-255h72v255c-10 73 36 159 104 155 73-5 123-71 123-158v-252h73v416c0 13 1 27 5 41h-76c-4-23-1-46-1-70-30 50-84 81-141 81" id="U"/><path fill="#3a414a" d="M432-396l-42 63c-7 0-3-13-7-18-17-22-62-62-127-62-88-1-140 75-51 117 43 21 116 31 168 60 54 30 67 72 67 104 0 69-65 142-190 142-69 0-139-22-193-72l41-72c9 7 1 12 8 20 14 16 65 64 143 64 102 0 167-82 71-131-33-17-83-27-122-41-25-9-112-38-112-118 0-68 70-128 176-128 68 0 128 25 170 72" id="V"/><path fill="#3a414a" d="M59-624h382v62H125v205h261v64H125v231h313V0H59v-624" id="W"/><path fill="#3a414a" d="M173-413c-33-7-69 65-69 108V0H38v-457h66v45c21-32 56-56 93-56 41 0 74 29 81 67 27-65 127-96 174-30 21 30 18 69 18 107V1h-68v-325c5-38-4-96-42-91-51 6-72 68-73 113V0h-67v-318c7-41-11-101-47-95" id="X"/><path fill="#3a414a" d="M366-269c2-83-14-137-109-139-42 0-94 12-131 51l-35-46c43-44 101-64 163-64 110 0 181 69 181 184V0h-68v-50C317-9 259 11 203 11 23 8-5-195 154-249c63-21 138-20 212-20zm3 55c-54 1-120-4-167 7-57 14-81 51-81 84 0 41 35 79 96 79 60 0 104-36 120-54 39-46 31-65 32-116" id="Y"/><path fill="#3a414a" d="M85-665h202v607h134V0H79v-58h135v-549H85v-58" id="Z"/><g id="e"><use transform="matrix(0.022222222222222223,0,0,0.022222222222222223,0,0)" xlink:href="#U"/><use transform="matrix(0.022222222222222223,0,0,0.022222222222222223,11.11111111111111,0)" xlink:href="#V"/><use transform="matrix(0.022222222222222223,0,0,0.022222222222222223,22.22222222222222,0)" xlink:href="#R"/><use transform="matrix(0.022222222222222223,0,0,0.022222222222222223,33.33333333333333,0)" xlink:href="#T"/><use transform="matrix(0.022222222222222223,0,0,0.022222222222222223,44.44444444444444,0)" xlink:href="#W"/><use transform="matrix(0.022222222222222223,0,0,0.022222222222222223,55.55555555555556,0)" xlink:href="#X"/><use transform="matrix(0.022222222222222223,0,0,0.022222222222222223,66.66666666666667,0)" xlink:href="#Y"/><use transform="matrix(0.022222222222222223,0,0,0.022222222222222223,77.77777777777779,0)" xlink:href="#L"/><use transform="matrix(0.022222222222222223,0,0,0.022222222222222223,88.8888888888889,0)" xlink:href="#Z"/><use transform="matrix(0.022222222222222223,0,0,0.022222222222222223,100.00000000000003,0)" xlink:href="#N"/></g><path fill="#3a414a" d="M435-549l-44 60c-7-1-4-13-8-18-24-35-68-62-126-62-71 0-113 43-113 91 0 25 12 63 64 93 57 33 145 52 199 103 39 37 48 79 48 112 0 78-56 180-208 180-77 0-146-27-195-80l41-72c9 7 1 13 8 21 28 35 80 68 148 68 136 0 185-132 84-199-46-31-136-50-194-93C2-448 89-626 262-627c68 0 131 28 173 78" id="aa"/><g id="f"><use transform="matrix(0.022222222222222223,0,0,0.022222222222222223,0,0)" xlink:href="#aa"/><use transform="matrix(0.022222222222222223,0,0,0.022222222222222223,11.11111111111111,0)" xlink:href="#Q"/><use transform="matrix(0.022222222222222223,0,0,0.022222222222222223,22.22222222222222,0)" xlink:href="#T"/><use transform="matrix(0.022222222222222223,0,0,0.022222222222222223,33.33333333333333,0)" xlink:href="#L"/><use transform="matrix(0.022222222222222223,0,0,0.022222222222222223,44.44444444444444,0)" xlink:href="#P"/><use transform="matrix(0.022222222222222223,0,0,0.022222222222222223,55.55555555555556,0)" xlink:href="#S"/></g><path fill="#3a414a" d="M456-448c0 100-85 173-202 173H131V0H59v-623h190c118-13 207 74 207 175zm-72 4c0-65-58-113-135-113H131l-1 220h126c73 8 128-44 128-107" id="ab"/><path fill="#3a414a" d="M16-457h73c5 14-6 24-3 38l67 329 78-324h44l97 323c39-260 44-311 42-366h67c-20 153-45 307-76 458h-68l-84-296L173 1h-65" id="ac"/><path fill="#3a414a" d="M460-226c0 151-97 238-205 238C140 12 40-86 40-225c0-141 101-242 217-242 104 0 203 83 203 241zm-72 3c1-245-271-238-272-8-5 228 272 366 272 8" id="ad"/><g id="g"><use transform="matrix(0.022222222222222223,0,0,0.022222222222222223,0,0)" xlink:href="#U"/><use transform="matrix(0.022222222222222223,0,0,0.022222222222222223,11.11111111111111,0)" xlink:href="#V"/><use transform="matrix(0.022222222222222223,0,0,0.022222222222222223,22.22222222222222,0)" xlink:href="#R"/><use transform="matrix(0.022222222222222223,0,0,0.022222222222222223,33.33333333333333,0)" xlink:href="#T"/><use transform="matrix(0.022222222222222223,0,0,0.022222222222222223,44.44444444444444,0)" xlink:href="#ab"/><use transform="matrix(0.022222222222222223,0,0,0.022222222222222223,55.55555555555556,0)" xlink:href="#Y"/><use transform="matrix(0.022222222222222223,0,0,0.022222222222222223,66.66666666666667,0)" xlink:href="#V"/><use transform="matrix(0.022222222222222223,0,0,0.022222222222222223,77.77777777777779,0)" xlink:href="#V"/><use transform="matrix(0.022222222222222223,0,0,0.022222222222222223,88.8888888888889,0)" xlink:href="#ac"/><use transform="matrix(0.022222222222222223,0,0,0.022222222222222223,100.00000000000003,0)" xlink:href="#ad"/><use transform="matrix(0.022222222222222223,0,0,0.022222222222222223,111.11111111111113,0)" xlink:href="#T"/><use transform="matrix(0.022222222222222223,0,0,0.022222222222222223,122.22222222222224,0)" xlink:href="#M"/><use transform="matrix(0.022222222222222223,0,0,0.022222222222222223,133.33333333333334,0)" xlink:href="#N"/></g><g id="h"><use transform="matrix(0.022222222222222223,0,0,0.022222222222222223,0,0)" xlink:href="#aa"/><use transform="matrix(0.022222222222222223,0,0,0.022222222222222223,11.11111111111111,0)" xlink:href="#Q"/><use transform="matrix(0.022222222222222223,0,0,0.022222222222222223,22.22222222222222,0)" xlink:href="#T"/><use transform="matrix(0.022222222222222223,0,0,0.022222222222222223,33.33333333333333,0)" xlink:href="#L"/><use transform="matrix(0.022222222222222223,0,0,0.022222222222222223,44.44444444444444,0)" xlink:href="#P"/><use transform="matrix(0.022222222222222223,0,0,0.022222222222222223,55.55555555555556,0)" xlink:href="#S"/></g><path fill="#3a414a" d="M222-523h63v171h171v61H285v187h-63v-187H45v-61h177v-171" id="ae"/><use transform="matrix(0.022222222222222223,0,0,0.022222222222222223,0,0)" xlink:href="#ae" id="i"/><path fill="#3a414a" d="M252 11C136 11 50-82 50-215v-408h79c5 13-10 20-10 32v377c-10 92 55 166 134 166s134-75 134-169v-406h67v405c0 46-1 89-25 132-35 65-105 97-177 97" id="af"/><path fill="#3a414a" d="M403-604c-124 64-194 197-195 342 0 155 80 303 217 382l-32 53C235 90 139-76 139-258c0-183 98-340 253-408l30 61c-7 4-12 1-19 1" id="ag"/><path fill="#3a414a" d="M78-603l19-62c162 75 267 236 267 414C364-71 257 95 91 174l-19-60C207 42 293-98 293-248c0-148-83-285-215-355" id="ah"/><g id="j"><use transform="matrix(0.022222222222222223,0,0,0.022222222222222223,0,0)" xlink:href="#T"/><use transform="matrix(0.022222222222222223,0,0,0.022222222222222223,11.11111111111111,0)" xlink:href="#R"/><use transform="matrix(0.022222222222222223,0,0,0.022222222222222223,22.22222222222222,0)" xlink:href="#S"/><use transform="matrix(0.022222222222222223,0,0,0.022222222222222223,33.33333333333333,0)" xlink:href="#L"/><use transform="matrix(0.022222222222222223,0,0,0.022222222222222223,44.44444444444444,0)" xlink:href="#V"/><use transform="matrix(0.022222222222222223,0,0,0.022222222222222223,55.55555555555556,0)" xlink:href="#Q"/><use transform="matrix(0.022222222222222223,0,0,0.022222222222222223,66.66666666666667,0)" xlink:href="#R"/><use transform="matrix(0.022222222222222223,0,0,0.022222222222222223,77.77777777777779,0)" xlink:href="#T"/><use transform="matrix(0.022222222222222223,0,0,0.022222222222222223,88.8888888888889,0)" xlink:href="#af"/><use transform="matrix(0.022222222222222223,0,0,0.022222222222222223,100.00000000000003,0)" xlink:href="#V"/><use transform="matrix(0.022222222222222223,0,0,0.022222222222222223,111.11111111111113,0)" xlink:href="#R"/><use transform="matrix(0.022222222222222223,0,0,0.022222222222222223,122.22222222222224,0)" xlink:href="#T"/><use transform="matrix(0.022222222222222223,0,0,0.022222222222222223,133.33333333333334,0)" xlink:href="#ag"/><use transform="matrix(0.022222222222222223,0,0,0.022222222222222223,144.44444444444446,0)" xlink:href="#ah"/><use transform="matrix(0.022222222222222223,0,0,0.022222222222222223,155.55555555555557,0)" xlink:href="#N"/></g><path fill="#3a414a" d="M40-457h86c2 11-6 15-2 25L256-98c46-116 110-226 136-359h65C416-289 337-148 277 3h-56" id="ai"/><g id="k"><use transform="matrix(0.022222222222222223,0,0,0.022222222222222223,0,0)" xlink:href="#ai"/><use transform="matrix(0.022222222222222223,0,0,0.022222222222222223,11.11111111111111,0)" xlink:href="#ad"/><use transform="matrix(0.022222222222222223,0,0,0.022222222222222223,22.22222222222222,0)" xlink:href="#L"/><use transform="matrix(0.022222222222222223,0,0,0.022222222222222223,33.33333333333333,0)" xlink:href="#M"/></g><path fill="#3a414a" d="M201-1493h202V0H201v-1493" id="aj"/><path fill="#3a414a" d="M565 0C277-5 190-82 190-369v-608H55v-143h135v-318h185v318h379v143H375v608c5 178 21 215 190 215h189V0H565" id="ak"/><path fill="#3a414a" d="M731-1147c179 0 285 99 334 242 82-145 187-242 391-242 254 0 365 197 365 471V0h-185v-670c-1-193-55-314-231-317-198-3-309 148-309 354V0H911v-670c-1-195-55-314-233-317-195-3-307 150-307 354V0H186v-1120h185v174c77-124 176-201 360-201" id="al"/><path fill="#3a414a" d="M700-1294L426-551h549zm-114-199h229L1384 0h-210l-136-383H365L229 0H16" id="am"/><path fill="#3a414a" d="M571-1147c182 0 288 74 359 197v-606h184V0H930v-168C858-45 753 29 571 29c-292 0-458-272-458-588s166-588 458-588zm45 154c-217 0-313 195-313 434s96 434 313 434 314-195 314-434-97-434-314-434" id="an"/><g id="m"><use transform="matrix(0.010850694444444444,0,0,0.010850694444444444,0,0)" xlink:href="#aj"/><use transform="matrix(0.010850694444444444,0,0,0.010850694444444444,6.553819444444445,0)" xlink:href="#ak"/><use transform="matrix(0.010850694444444444,0,0,0.010850694444444444,15.266927083333332,0)" xlink:href="#I"/><use transform="matrix(0.010850694444444444,0,0,0.010850694444444444,28.938802083333336,0)" xlink:href="#al"/><use transform="matrix(0.010850694444444444,0,0,0.010850694444444444,50.5859375,0)" xlink:href="#am"/><use transform="matrix(0.010850694444444444,0,0,0.010850694444444444,65.39713541666667,0)" xlink:href="#an"/></g><g id="n"><use transform="matrix(0.022222222222222223,0,0,0.022222222222222223,0,0)" xlink:href="#P"/><use transform="matrix(0.022222222222222223,0,0,0.022222222222222223,11.11111111111111,0)" xlink:href="#Y"/><use transform="matrix(0.022222222222222223,0,0,0.022222222222222223,22.22222222222222,0)" xlink:href="#X"/><use transform="matrix(0.022222222222222223,0,0,0.022222222222222223,33.33333333333333,0)" xlink:href="#R"/><use transform="matrix(0.022222222222222223,0,0,0.022222222222222223,44.44444444444444,0)" xlink:href="#N"/></g><path fill="#3a414a" d="M457-381l-51 59c-8-6-3-15-7-23-3-5-40-60-118-60-84 0-151 65-151 169 0 107 68 182 157 182 46 0 90-21 121-56l42 49c-44 47-105 72-169 72C152 11 56-90 56-228c0-137 96-238 230-238 73 0 135 32 171 85" id="ao"/><path fill="#3a414a" d="M60-457h73v70c31-50 85-80 144-80 90 0 186 72 186 233 0 168-99 246-192 246-55 0-107-27-137-72v227H60v-624zm191 51c-78 0-118 60-118 157 0 66 0 103 13 134 18 42 61 63 104 63s138-23 138-167c0-166-97-187-137-187" id="ap"/><g id="o"><use transform="matrix(0.022222222222222223,0,0,0.022222222222222223,0,0)" xlink:href="#M"/><use transform="matrix(0.022222222222222223,0,0,0.022222222222222223,11.11111111111111,0)" xlink:href="#R"/><use transform="matrix(0.022222222222222223,0,0,0.022222222222222223,22.22222222222222,0)" xlink:href="#V"/><use transform="matrix(0.022222222222222223,0,0,0.022222222222222223,33.33333333333333,0)" xlink:href="#ao"/><use transform="matrix(0.022222222222222223,0,0,0.022222222222222223,44.44444444444444,0)" xlink:href="#T"/><use transform="matrix(0.022222222222222223,0,0,0.022222222222222223,55.55555555555556,0)" xlink:href="#L"/><use transform="matrix(0.022222222222222223,0,0,0.022222222222222223,66.66666666666667,0)" xlink:href="#ap"/><use transform="matrix(0.022222222222222223,0,0,0.022222222222222223,77.77777777777779,0)" xlink:href="#Q"/><use transform="matrix(0.022222222222222223,0,0,0.022222222222222223,88.8888888888889,0)" xlink:href="#L"/><use transform="matrix(0.022222222222222223,0,0,0.022222222222222223,100.00000000000003,0)" xlink:href="#ad"/><use transform="matrix(0.022222222222222223,0,0,0.022222222222222223,111.11111111111113,0)" xlink:href="#P"/><use transform="matrix(0.022222222222222223,0,0,0.022222222222222223,122.22222222222224,0)" xlink:href="#N"/></g><path fill="#3a414a" d="M15 1l220-635h8L483 0h-72l-69-182H144L84 1H15zm311-237l-88-238-80 238h168" id="aq"/><g id="p"><use transform="matrix(0.022222222222222223,0,0,0.022222222222222223,0,0)" xlink:href="#ap"/><use transform="matrix(0.022222222222222223,0,0,0.022222222222222223,11.11111111111111,0)" xlink:href="#ad"/><use transform="matrix(0.022222222222222223,0,0,0.022222222222222223,22.22222222222222,0)" xlink:href="#V"/><use transform="matrix(0.022222222222222223,0,0,0.022222222222222223,33.33333333333333,0)" xlink:href="#Q"/><use transform="matrix(0.022222222222222223,0,0,0.022222222222222223,44.44444444444444,0)" xlink:href="#aq"/><use transform="matrix(0.022222222222222223,0,0,0.022222222222222223,55.55555555555556,0)" xlink:href="#M"/><use transform="matrix(0.022222222222222223,0,0,0.022222222222222223,66.66666666666667,0)" xlink:href="#ag"/><use transform="matrix(0.022222222222222223,0,0,0.022222222222222223,77.77777777777779,0)" xlink:href="#ah"/><use transform="matrix(0.022222222222222223,0,0,0.022222222222222223,88.8888888888889,0)" xlink:href="#N"/></g><g id="q"><use transform="matrix(0.022222222222222223,0,0,0.022222222222222223,0,0)" xlink:href="#T"/><use transform="matrix(0.022222222222222223,0,0,0.022222222222222223,11.11111111111111,0)" xlink:href="#R"/><use transform="matrix(0.022222222222222223,0,0,0.022222222222222223,22.22222222222222,0)" xlink:href="#X"/><use transform="matrix(0.022222222222222223,0,0,0.022222222222222223,33.33333333333333,0)" xlink:href="#ad"/><use transform="matrix(0.022222222222222223,0,0,0.022222222222222223,44.44444444444444,0)" xlink:href="#ai"/><use transform="matrix(0.022222222222222223,0,0,0.022222222222222223,55.55555555555556,0)" xlink:href="#R"/><use transform="matrix(0.022222222222222223,0,0,0.022222222222222223,66.66666666666667,0)" xlink:href="#aq"/><use transform="matrix(0.022222222222222223,0,0,0.022222222222222223,77.77777777777779,0)" xlink:href="#M"/><use transform="matrix(0.022222222222222223,0,0,0.022222222222222223,88.8888888888889,0)" xlink:href="#ag"/><use transform="matrix(0.022222222222222223,0,0,0.022222222222222223,100.00000000000003,0)" xlink:href="#ah"/><use transform="matrix(0.022222222222222223,0,0,0.022222222222222223,111.11111111111113,0)" xlink:href="#N"/></g><g id="r"><use transform="matrix(0.022222222222222223,0,0,0.022222222222222223,0,0)" xlink:href="#ai"/><use transform="matrix(0.022222222222222223,0,0,0.022222222222222223,11.11111111111111,0)" xlink:href="#ad"/><use transform="matrix(0.022222222222222223,0,0,0.022222222222222223,22.22222222222222,0)" xlink:href="#L"/><use transform="matrix(0.022222222222222223,0,0,0.022222222222222223,33.33333333333333,0)" xlink:href="#M"/></g><path fill="#3a414a" d="M659-1520c164 2 303 31 437 76v197c-129-61-250-107-414-109-195-3-344 69-344 246 0 66 23 114 60 150 49 48 234 83 347 106 265 52 441 159 441 442 0 317-231 443-572 441-175-1-328-42-473-95v-208c140 77 283 136 473 139 205 3 361-75 361-262 0-181-114-230-289-265-297-59-551-112-551-432 0-282 224-430 524-426" id="ar"/><path fill="#3a414a" d="M61-1120h195l350 940 350-940h195L731 0H481" id="as"/><path fill="#3a414a" d="M193-1120h184V0H193v-1120zm0-436h184v233H193v-233" id="at"/><path fill="#3a414a" d="M676-1147c126 1 231 27 323 70v172c-91-50-188-85-315-86-248-1-377 174-377 432s128 433 377 432c127-1 224-36 315-86v170C903 2 799 28 664 29c-340 3-551-241-551-588 0-355 212-591 563-588" id="au"/><g id="s"><use transform="matrix(0.010850694444444444,0,0,0.010850694444444444,0,0)" xlink:href="#ar"/><use transform="matrix(0.010850694444444444,0,0,0.010850694444444444,14.105902777777777,0)" xlink:href="#I"/><use transform="matrix(0.010850694444444444,0,0,0.010850694444444444,27.77777777777778,0)" xlink:href="#J"/><use transform="matrix(0.010850694444444444,0,0,0.010850694444444444,36.9140625,0)" xlink:href="#as"/><use transform="matrix(0.010850694444444444,0,0,0.010850694444444444,50.065104166666664,0)" xlink:href="#at"/><use transform="matrix(0.010850694444444444,0,0,0.010850694444444444,56.23914930555555,0)" xlink:href="#au"/><use transform="matrix(0.010850694444444444,0,0,0.010850694444444444,68.45703125,0)" xlink:href="#I"/><use transform="matrix(0.010850694444444444,0,0,0.010850694444444444,82.12890625,0)" xlink:href="#am"/><use transform="matrix(0.010850694444444444,0,0,0.010850694444444444,96.94010416666666,0)" xlink:href="#an"/></g><path fill="#3a414a" d="M201-1493h858v170H403v440h592v170H403V0H201v-1493" id="av"/><path fill="#3a414a" d="M547-125c226-2 354-189 338-438-167-2-418-1-492 51-55 38-86 92-86 174-1 135 100 214 240 213zm39-1022c330 0 483 173 483 508V0H885v-170C806-43 694 26 498 29c-221 3-379-138-375-355 5-279 201-382 504-381h258c7-193-124-285-318-284-145 1-261 37-362 92v-170c117-45 236-78 381-78" id="aw"/><path fill="#3a414a" d="M946-559c0-236-103-432-319-432-218 0-320 194-320 432 0 239 101 432 320 432 216 0 319-195 319-432zm-833 0c0-347 180-588 514-588 333 0 514 242 514 588S959 29 627 29c-333 0-514-242-514-588" id="ax"/><g id="t"><use transform="matrix(0.010850694444444444,0,0,0.010850694444444444,0,0)" xlink:href="#av"/><use transform="matrix(0.010850694444444444,0,0,0.010850694444444444,10.7421875,0)" xlink:href="#aw"/><use transform="matrix(0.010850694444444444,0,0,0.010850694444444444,24.35980902777778,0)" xlink:href="#as"/><use transform="matrix(0.010850694444444444,0,0,0.010850694444444444,37.51085069444444,0)" xlink:href="#ax"/><use transform="matrix(0.010850694444444444,0,0,0.010850694444444444,51.10677083333333,0)" xlink:href="#J"/><use transform="matrix(0.010850694444444444,0,0,0.010850694444444444,60.24305555555555,0)" xlink:href="#at"/><use transform="matrix(0.010850694444444444,0,0,0.010850694444444444,66.41710069444444,0)" xlink:href="#ak"/><use transform="matrix(0.010850694444444444,0,0,0.010850694444444444,75.13020833333333,0)" xlink:href="#I"/><use transform="matrix(0.010850694444444444,0,0,0.010850694444444444,88.80208333333333,0)" xlink:href="#H"/></g><path fill="#3a414a" d="M162-475c-12-115 77-196 181-196 57 0 107 24 140 63l-33 66c-10 1-6-13-10-20-19-29-56-52-100-52-73 0-120 71-109 149v35h150v57H231V0h-69v-373H63v-57h99v-45" id="ay"/><g id="u"><use transform="matrix(0.022222222222222223,0,0,0.022222222222222223,0,0)" xlink:href="#ay"/><use transform="matrix(0.022222222222222223,0,0,0.022222222222222223,11.11111111111111,0)" xlink:href="#Y"/><use transform="matrix(0.022222222222222223,0,0,0.022222222222222223,22.22222222222222,0)" xlink:href="#ai"/><use transform="matrix(0.022222222222222223,0,0,0.022222222222222223,33.33333333333333,0)" xlink:href="#ad"/><use transform="matrix(0.022222222222222223,0,0,0.022222222222222223,44.44444444444444,0)" xlink:href="#T"/><use transform="matrix(0.022222222222222223,0,0,0.022222222222222223,55.55555555555556,0)" xlink:href="#L"/><use transform="matrix(0.022222222222222223,0,0,0.022222222222222223,66.66666666666667,0)" xlink:href="#Q"/><use transform="matrix(0.022222222222222223,0,0,0.022222222222222223,77.77777777777779,0)" xlink:href="#R"/><use transform="matrix(0.022222222222222223,0,0,0.022222222222222223,88.8888888888889,0)" xlink:href="#O"/><use transform="matrix(0.022222222222222223,0,0,0.022222222222222223,100.00000000000003,0)" xlink:href="#Q"/><use transform="matrix(0.022222222222222223,0,0,0.022222222222222223,111.11111111111113,0)" xlink:href="#R"/><use transform="matrix(0.022222222222222223,0,0,0.022222222222222223,122.22222222222224,0)" xlink:href="#X"/><use transform="matrix(0.022222222222222223,0,0,0.022222222222222223,133.33333333333334,0)" xlink:href="#V"/><use transform="matrix(0.022222222222222223,0,0,0.022222222222222223,144.44444444444446,0)" xlink:href="#N"/></g><path fill="#3a414a" d="M458-496v-71L35-344v48L461-47v-76L111-319" id="az"/><path fill="#3a414a" d="M42-496v-71l424 223v48L40-47v-76l349-196" id="aA"/><g id="v"><use transform="matrix(0.022222222222222223,0,0,0.022222222222222223,0,0)" xlink:href="#aa"/><use transform="matrix(0.022222222222222223,0,0,0.022222222222222223,11.11111111111111,0)" xlink:href="#R"/><use transform="matrix(0.022222222222222223,0,0,0.022222222222222223,22.22222222222222,0)" xlink:href="#Q"/><use transform="matrix(0.022222222222222223,0,0,0.022222222222222223,33.33333333333333,0)" xlink:href="#az"/><use transform="matrix(0.022222222222222223,0,0,0.022222222222222223,44.44444444444444,0)" xlink:href="#O"/><use transform="matrix(0.022222222222222223,0,0,0.022222222222222223,55.55555555555556,0)" xlink:href="#Q"/><use transform="matrix(0.022222222222222223,0,0,0.022222222222222223,66.66666666666667,0)" xlink:href="#R"/><use transform="matrix(0.022222222222222223,0,0,0.022222222222222223,77.77777777777779,0)" xlink:href="#X"/><use transform="matrix(0.022222222222222223,0,0,0.022222222222222223,88.8888888888889,0)" xlink:href="#aq"/><use transform="matrix(0.022222222222222223,0,0,0.022222222222222223,100.00000000000003,0)" xlink:href="#M"/><use transform="matrix(0.022222222222222223,0,0,0.022222222222222223,111.11111111111113,0)" xlink:href="#aA"/></g><g id="w"><use transform="matrix(0.022222222222222223,0,0,0.022222222222222223,0,0)" xlink:href="#ay"/><use transform="matrix(0.022222222222222223,0,0,0.022222222222222223,11.11111111111111,0)" xlink:href="#Y"/><use transform="matrix(0.022222222222222223,0,0,0.022222222222222223,22.22222222222222,0)" xlink:href="#ai"/><use transform="matrix(0.022222222222222223,0,0,0.022222222222222223,33.33333333333333,0)" xlink:href="#ad"/><use transform="matrix(0.022222222222222223,0,0,0.022222222222222223,44.44444444444444,0)" xlink:href="#T"/><use transform="matrix(0.022222222222222223,0,0,0.022222222222222223,55.55555555555556,0)" xlink:href="#L"/><use transform="matrix(0.022222222222222223,0,0,0.022222222222222223,66.66666666666667,0)" xlink:href="#Q"/><use transform="matrix(0.022222222222222223,0,0,0.022222222222222223,77.77777777777779,0)" xlink:href="#R"/><use transform="matrix(0.022222222222222223,0,0,0.022222222222222223,88.8888888888889,0)" xlink:href="#aa"/><use transform="matrix(0.022222222222222223,0,0,0.022222222222222223,100.00000000000003,0)" xlink:href="#R"/><use transform="matrix(0.022222222222222223,0,0,0.022222222222222223,111.11111111111113,0)" xlink:href="#T"/><use transform="matrix(0.022222222222222223,0,0,0.022222222222222223,122.22222222222224,0)" xlink:href="#ai"/><use transform="matrix(0.022222222222222223,0,0,0.022222222222222223,133.33333333333334,0)" xlink:href="#L"/><use transform="matrix(0.022222222222222223,0,0,0.022222222222222223,144.44444444444446,0)" xlink:href="#ao"/><use transform="matrix(0.022222222222222223,0,0,0.022222222222222223,155.55555555555557,0)" xlink:href="#R"/><use transform="matrix(0.022222222222222223,0,0,0.022222222222222223,166.66666666666669,0)" xlink:href="#V"/><use transform="matrix(0.022222222222222223,0,0,0.022222222222222223,177.7777777777778,0)" xlink:href="#N"/></g><g id="x"><use transform="matrix(0.022222222222222223,0,0,0.022222222222222223,0,0)" xlink:href="#aa"/><use transform="matrix(0.022222222222222223,0,0,0.022222222222222223,11.11111111111111,0)" xlink:href="#R"/><use transform="matrix(0.022222222222222223,0,0,0.022222222222222223,22.22222222222222,0)" xlink:href="#Q"/><use transform="matrix(0.022222222222222223,0,0,0.022222222222222223,33.33333333333333,0)" xlink:href="#az"/><use transform="matrix(0.022222222222222223,0,0,0.022222222222222223,44.44444444444444,0)" xlink:href="#aa"/><use transform="matrix(0.022222222222222223,0,0,0.022222222222222223,55.55555555555556,0)" xlink:href="#R"/><use transform="matrix(0.022222222222222223,0,0,0.022222222222222223,66.66666666666667,0)" xlink:href="#T"/><use transform="matrix(0.022222222222222223,0,0,0.022222222222222223,77.77777777777779,0)" xlink:href="#ai"/><use transform="matrix(0.022222222222222223,0,0,0.022222222222222223,88.8888888888889,0)" xlink:href="#L"/><use transform="matrix(0.022222222222222223,0,0,0.022222222222222223,100.00000000000003,0)" xlink:href="#ao"/><use transform="matrix(0.022222222222222223,0,0,0.022222222222222223,111.11111111111113,0)" xlink:href="#R"/><use transform="matrix(0.022222222222222223,0,0,0.022222222222222223,122.22222222222224,0)" xlink:href="#aq"/><use transform="matrix(0.022222222222222223,0,0,0.022222222222222223,133.33333333333334,0)" xlink:href="#M"/><use transform="matrix(0.022222222222222223,0,0,0.022222222222222223,144.44444444444446,0)" xlink:href="#aA"/></g><path fill="#3a414a" d="M1243-748c0-407-186-577-596-579H403v1161h244c411-2 596-174 596-582zm213 0c0 539-284 746-840 748H201v-1493h415c557 2 840 207 840 745" id="aB"/><path fill="#3a414a" d="M193-1556h184V0H193v-1556" id="aC"/><g id="y"><use transform="matrix(0.010850694444444444,0,0,0.010850694444444444,0,0)" xlink:href="#G"/><use transform="matrix(0.010850694444444444,0,0,0.010850694444444444,16.26519097222222,0)" xlink:href="#H"/><use transform="matrix(0.010850694444444444,0,0,0.010850694444444444,27.842881944444443,0)" xlink:href="#I"/><use transform="matrix(0.010850694444444444,0,0,0.010850694444444444,41.51475694444444,0)" xlink:href="#J"/><use transform="matrix(0.010850694444444444,0,0,0.010850694444444444,50.651041666666664,0)" xlink:href="#aB"/><use transform="matrix(0.010850694444444444,0,0,0.010850694444444444,67.76258680555556,0)" xlink:href="#I"/><use transform="matrix(0.010850694444444444,0,0,0.010850694444444444,81.43446180555556,0)" xlink:href="#ak"/><use transform="matrix(0.010850694444444444,0,0,0.010850694444444444,90.14756944444444,0)" xlink:href="#aw"/><use transform="matrix(0.010850694444444444,0,0,0.010850694444444444,103.76519097222221,0)" xlink:href="#at"/><use transform="matrix(0.010850694444444444,0,0,0.010850694444444444,109.93923611111111,0)" xlink:href="#aC"/><use transform="matrix(0.010850694444444444,0,0,0.010850694444444444,116.11328124999997,0)" xlink:href="#H"/></g><path fill="#3a414a" d="M454-624c1 13-7 14-7 27V1h-55L117-490V0H50v-623h68l262 462v-463h74" id="aD"/><g id="z"><use transform="matrix(0.022222222222222223,0,0,0.022222222222222223,0,0)" xlink:href="#ay"/><use transform="matrix(0.022222222222222223,0,0,0.022222222222222223,11.11111111111111,0)" xlink:href="#L"/><use transform="matrix(0.022222222222222223,0,0,0.022222222222222223,22.22222222222222,0)" xlink:href="#T"/><use transform="matrix(0.022222222222222223,0,0,0.022222222222222223,33.33333333333333,0)" xlink:href="#V"/><use transform="matrix(0.022222222222222223,0,0,0.022222222222222223,44.44444444444444,0)" xlink:href="#Q"/><use transform="matrix(0.022222222222222223,0,0,0.022222222222222223,55.55555555555556,0)" xlink:href="#aD"/><use transform="matrix(0.022222222222222223,0,0,0.022222222222222223,66.66666666666667,0)" xlink:href="#Y"/><use transform="matrix(0.022222222222222223,0,0,0.022222222222222223,77.77777777777779,0)" xlink:href="#X"/><use transform="matrix(0.022222222222222223,0,0,0.022222222222222223,88.8888888888889,0)" xlink:href="#R"/><use transform="matrix(0.022222222222222223,0,0,0.022222222222222223,100.00000000000003,0)" xlink:href="#N"/></g><g id="A"><use transform="matrix(0.022222222222222223,0,0,0.022222222222222223,0,0)" xlink:href="#Z"/><use transform="matrix(0.022222222222222223,0,0,0.022222222222222223,11.11111111111111,0)" xlink:href="#Y"/><use transform="matrix(0.022222222222222223,0,0,0.022222222222222223,22.22222222222222,0)" xlink:href="#V"/><use transform="matrix(0.022222222222222223,0,0,0.022222222222222223,33.33333333333333,0)" xlink:href="#Q"/><use transform="matrix(0.022222222222222223,0,0,0.022222222222222223,44.44444444444444,0)" xlink:href="#aD"/><use transform="matrix(0.022222222222222223,0,0,0.022222222222222223,55.55555555555556,0)" xlink:href="#Y"/><use transform="matrix(0.022222222222222223,0,0,0.022222222222222223,66.66666666666667,0)" xlink:href="#X"/><use transform="matrix(0.022222222222222223,0,0,0.022222222222222223,77.77777777777779,0)" xlink:href="#R"/><use transform="matrix(0.022222222222222223,0,0,0.022222222222222223,88.8888888888889,0)" xlink:href="#N"/></g><path fill="#3a414a" d="M78-624h359v61H148v196h233v61H148V0H78v-624" id="aE"/><g id="B"><use transform="matrix(0.022222222222222223,0,0,0.022222222222222223,0,0)" xlink:href="#L"/><use transform="matrix(0.022222222222222223,0,0,0.022222222222222223,11.11111111111111,0)" xlink:href="#Q"/><use transform="matrix(0.022222222222222223,0,0,0.022222222222222223,22.22222222222222,0)" xlink:href="#R"/><use transform="matrix(0.022222222222222223,0,0,0.022222222222222223,33.33333333333333,0)" xlink:href="#X"/><use transform="matrix(0.022222222222222223,0,0,0.022222222222222223,44.44444444444444,0)" xlink:href="#V"/><use transform="matrix(0.022222222222222223,0,0,0.022222222222222223,55.55555555555556,0)" xlink:href="#aE"/><use transform="matrix(0.022222222222222223,0,0,0.022222222222222223,66.66666666666667,0)" xlink:href="#ad"/><use transform="matrix(0.022222222222222223,0,0,0.022222222222222223,77.77777777777779,0)" xlink:href="#T"/><use transform="matrix(0.022222222222222223,0,0,0.022222222222222223,88.8888888888889,0)" xlink:href="#aa"/><use transform="matrix(0.022222222222222223,0,0,0.022222222222222223,100.00000000000003,0)" xlink:href="#Y"/><use transform="matrix(0.022222222222222223,0,0,0.022222222222222223,111.11111111111113,0)" xlink:href="#Z"/><use transform="matrix(0.022222222222222223,0,0,0.022222222222222223,122.22222222222224,0)" xlink:href="#R"/><use transform="matrix(0.022222222222222223,0,0,0.022222222222222223,133.33333333333334,0)" xlink:href="#N"/></g><path fill="#3a414a" d="M471-310c0 55-4 132-37 199C393-28 321 10 254 10 159 10 29-68 29-313s132-317 225-317c68 0 138 37 179 117 34 67 38 145 38 203zM251-564c-65 0-153 56-153 242 0 198 86 263 156 263 42 0 90-23 119-84 26-54 28-117 28-158 0-53-3-113-24-165-29-72-82-98-126-98" id="aF"/><g id="C"><use transform="matrix(0.022222222222222223,0,0,0.022222222222222223,0,0)" xlink:href="#V"/><use transform="matrix(0.022222222222222223,0,0,0.022222222222222223,11.11111111111111,0)" xlink:href="#R"/><use transform="matrix(0.022222222222222223,0,0,0.022222222222222223,22.22222222222222,0)" xlink:href="#T"/><use transform="matrix(0.022222222222222223,0,0,0.022222222222222223,33.33333333333333,0)" xlink:href="#ai"/><use transform="matrix(0.022222222222222223,0,0,0.022222222222222223,44.44444444444444,0)" xlink:href="#L"/><use transform="matrix(0.022222222222222223,0,0,0.022222222222222223,55.55555555555556,0)" xlink:href="#ao"/><use transform="matrix(0.022222222222222223,0,0,0.022222222222222223,66.66666666666667,0)" xlink:href="#R"/><use transform="matrix(0.022222222222222223,0,0,0.022222222222222223,77.77777777777779,0)" xlink:href="#V"/><use transform="matrix(0.022222222222222223,0,0,0.022222222222222223,88.8888888888889,0)" xlink:href="#aF"/><use transform="matrix(0.022222222222222223,0,0,0.022222222222222223,100.00000000000003,0)" xlink:href="#ay"/><use transform="matrix(0.022222222222222223,0,0,0.022222222222222223,111.11111111111113,0)" xlink:href="#ay"/><use transform="matrix(0.022222222222222223,0,0,0.022222222222222223,122.22222222222224,0)" xlink:href="#R"/><use transform="matrix(0.022222222222222223,0,0,0.022222222222222223,133.33333333333334,0)" xlink:href="#T"/><use transform="matrix(0.022222222222222223,0,0,0.022222222222222223,144.44444444444446,0)" xlink:href="#R"/><use transform="matrix(0.022222222222222223,0,0,0.022222222222222223,155.55555555555557,0)" xlink:href="#M"/><use transform="matrix(0.022222222222222223,0,0,0.022222222222222223,166.66666666666669,0)" xlink:href="#N"/></g><g id="D"><use transform="matrix(0.022222222222222223,0,0,0.022222222222222223,0,0)" xlink:href="#aa"/><use transform="matrix(0.022222222222222223,0,0,0.022222222222222223,11.11111111111111,0)" xlink:href="#R"/><use transform="matrix(0.022222222222222223,0,0,0.022222222222222223,22.22222222222222,0)" xlink:href="#Q"/><use transform="matrix(0.022222222222222223,0,0,0.022222222222222223,33.33333333333333,0)" xlink:href="#az"/><use transform="matrix(0.022222222222222223,0,0,0.022222222222222223,44.44444444444444,0)" xlink:href="#aa"/><use transform="matrix(0.022222222222222223,0,0,0.022222222222222223,55.55555555555556,0)" xlink:href="#R"/><use transform="matrix(0.022222222222222223,0,0,0.022222222222222223,66.66666666666667,0)" xlink:href="#T"/><use transform="matrix(0.022222222222222223,0,0,0.022222222222222223,77.77777777777779,0)" xlink:href="#ai"/><use transform="matrix(0.022222222222222223,0,0,0.022222222222222223,88.8888888888889,0)" xlink:href="#L"/><use transform="matrix(0.022222222222222223,0,0,0.022222222222222223,100.00000000000003,0)" xlink:href="#ao"/><use transform="matrix(0.022222222222222223,0,0,0.022222222222222223,111.11111111111113,0)" xlink:href="#R"/><use transform="matrix(0.022222222222222223,0,0,0.022222222222222223,122.22222222222224,0)" xlink:href="#aq"/><use transform="matrix(0.022222222222222223,0,0,0.022222222222222223,133.33333333333334,0)" xlink:href="#M"/><use transform="matrix(0.022222222222222223,0,0,0.022222222222222223,144.44444444444446,0)" xlink:href="#aA"/></g><g id="E"><use transform="matrix(0.022222222222222223,0,0,0.022222222222222223,0,0)" xlink:href="#ay"/><use transform="matrix(0.022222222222222223,0,0,0.022222222222222223,11.11111111111111,0)" xlink:href="#Y"/><use transform="matrix(0.022222222222222223,0,0,0.022222222222222223,22.22222222222222,0)" xlink:href="#ai"/><use transform="matrix(0.022222222222222223,0,0,0.022222222222222223,33.33333333333333,0)" xlink:href="#ad"/><use transform="matrix(0.022222222222222223,0,0,0.022222222222222223,44.44444444444444,0)" xlink:href="#T"/><use transform="matrix(0.022222222222222223,0,0,0.022222222222222223,55.55555555555556,0)" xlink:href="#L"/><use transform="matrix(0.022222222222222223,0,0,0.022222222222222223,66.66666666666667,0)" xlink:href="#Q"/><use transform="matrix(0.022222222222222223,0,0,0.022222222222222223,77.77777777777779,0)" xlink:href="#R"/><use transform="matrix(0.022222222222222223,0,0,0.022222222222222223,88.8888888888889,0)" xlink:href="#V"/><use transform="matrix(0.022222222222222223,0,0,0.022222222222222223,100.00000000000003,0)" xlink:href="#aa"/><use transform="matrix(0.022222222222222223,0,0,0.022222222222222223,111.11111111111113,0)" xlink:href="#R"/><use transform="matrix(0.022222222222222223,0,0,0.022222222222222223,122.22222222222224,0)" xlink:href="#Q"/><use transform="matrix(0.022222222222222223,0,0,0.022222222222222223,133.33333333333334,0)" xlink:href="#N"/></g><g id="F"><use transform="matrix(0.022222222222222223,0,0,0.022222222222222223,0,0)" xlink:href="#aa"/><use transform="matrix(0.022222222222222223,0,0,0.022222222222222223,11.11111111111111,0)" xlink:href="#R"/><use transform="matrix(0.022222222222222223,0,0,0.022222222222222223,22.22222222222222,0)" xlink:href="#Q"/><use transform="matrix(0.022222222222222223,0,0,0.022222222222222223,33.33333333333333,0)" xlink:href="#az"/><use transform="matrix(0.022222222222222223,0,0,0.022222222222222223,44.44444444444444,0)" xlink:href="#aE"/><use transform="matrix(0.022222222222222223,0,0,0.022222222222222223,55.55555555555556,0)" xlink:href="#Y"/><use transform="matrix(0.022222222222222223,0,0,0.022222222222222223,66.66666666666667,0)" xlink:href="#ai"/><use transform="matrix(0.022222222222222223,0,0,0.022222222222222223,77.77777777777779,0)" xlink:href="#ad"/><use transform="matrix(0.022222222222222223,0,0,0.022222222222222223,88.8888888888889,0)" xlink:href="#T"/><use transform="matrix(0.022222222222222223,0,0,0.022222222222222223,100.00000000000003,0)" xlink:href="#L"/><use transform="matrix(0.022222222222222223,0,0,0.022222222222222223,111.11111111111113,0)" xlink:href="#Q"/><use transform="matrix(0.022222222222222223,0,0,0.022222222222222223,122.22222222222224,0)" xlink:href="#R"/><use transform="matrix(0.022222222222222223,0,0,0.022222222222222223,133.33333333333334,0)" xlink:href="#V"/><use transform="matrix(0.022222222222222223,0,0,0.022222222222222223,144.44444444444446,0)" xlink:href="#aA"/></g></defs></g></svg>